<svg xmlns="http://www.w3.org/2000/svg" version="1.1" xmlns:xlink="http://www.w3.org/1999/xlink" xmlns:svgjs="http://svgjs.dev/svgjs" width="1500" height="1500" viewBox="0 0 1500 1500"><rect width="1500" height="1500" fill="#ffffff"></rect><g transform="matrix(0.6666666666666666,0,0,0.6666666666666666,249.39393939393938,550.5167937237189)"><svg viewBox="0 0 396 158" data-background-color="#000000" preserveAspectRatio="xMidYMid meet" height="598" width="1500" xmlns="http://www.w3.org/2000/svg" xmlns:xlink="http://www.w3.org/1999/xlink"><g id="tight-bounds" transform="matrix(1,0,0,1,0.2400000000000091,0.05939780514817983)"><svg viewBox="0 0 395.52 157.88120438970364" height="157.88120438970364" width="395.52"><g><svg viewBox="0 0 395.52 157.88120438970364" height="157.88120438970364" width="395.52"><g transform="matrix(1,0,0,1,0,117.47140036566392)"><svg viewBox="0 0 395.52 40.409804024039715" height="40.409804024039715" width="395.52"><g id="textblocktransform"><svg viewBox="0 0 395.52 40.409804024039715" height="40.409804024039715" width="395.52" id="textblock"><g><svg viewBox="0 0 395.52 40.409804024039715" height="40.409804024039715" width="395.52"><g transform="matrix(1,0,0,1,0,0)"><svg width="395.52" viewBox="3.08 -37.94 369.50000000000006 38.18" height="40.409804024039715" data-palette-color="url(#30e4ef0c-51ff-488f-b4d9-f36f31628567)"><g class="wordmark-text-0" data-fill-palette-color="primary" id="text-0"></g></svg></g></svg></g></svg></g></svg></g><g transform="matrix(1,0,0,1,148.56408471194723,0)"><svg viewBox="0 0 98.39183057610552 98.39183057610552" height="98.39183057610552" width="98.39183057610552"><g><svg></svg></g><g id="icon-0"><svg viewBox="0 0 98.39183057610552 98.39183057610552" height="98.39183057610552" width="98.39183057610552"><g></g><g transform="matrix(1,0,0,1,20.72632965917556,37.91997699924146)"><svg viewBox="0 0 56.9391712577544 22.55187657762259" height="22.55187657762259" width="56.9391712577544"><g><svg xmlns="http://www.w3.org/2000/svg" xmlns:xlink="http://www.w3.org/1999/xlink" version="1.1" x="0" y="0" viewBox="0.52 29.195999999999998 94.95300070888244 37.60799999999999" enable-background="new 0 0 96 96" xml:space="preserve" height="22.55187657762259" width="56.9391712577544" class="icon-cg-0" data-fill-palette-color="accent" id="cg-0"></svg></g></svg></g></svg></g></svg></g><g></g></svg></g><defs></defs><mask id="4e9b0388-f408-4758-9196-f7b49b068d6b"><g id="SvgjsG2389"><svg viewBox="0 0 395.52 157.88120438970364" height="157.88120438970364" width="395.52"><g><svg viewBox="0 0 395.52 157.88120438970364" height="157.88120438970364" width="395.52"><g transform="matrix(1,0,0,1,0,117.47140036566392)"><svg viewBox="0 0 395.52 40.409804024039715" height="40.409804024039715" width="395.52"><g id="SvgjsG2388"><svg viewBox="0 0 395.52 40.409804024039715" height="40.409804024039715" width="395.52" id="SvgjsSvg2387"><g><svg viewBox="0 0 395.52 40.409804024039715" height="40.409804024039715" width="395.52"><g transform="matrix(1,0,0,1,0,0)"><svg width="395.52" viewBox="3.08 -37.94 369.50000000000006 38.18" height="40.409804024039715" data-palette-color="url(#30e4ef0c-51ff-488f-b4d9-f36f31628567)"><g class="wordmark-text-0" data-fill-palette-color="primary" id="SvgjsG2386"><path d="M21.48-35.94L33.98 0 27.93 0 18.6-26.95 9.18 0 3.08 0 15.67-35.94 21.48-35.94ZM15.28-11.43L21.83-11.43 23.24-7.47 13.92-7.47 15.28-11.43ZM49.85-13.82L40.82-27.54 47.51-27.54 52.63-18.51 52.63-8.25 47.65 0 40.87 0 49.85-13.82ZM59.86-27.54L66.55-27.54 57.52-13.82 66.5 0 59.71 0 54.64-8.89 54.64-19.29 59.86-27.54ZM80.22-27.54L80.22-12.55Q80.22-10.84 80.37-9.35 80.51-7.86 81-6.74 81.49-5.62 82.47-4.93 83.44-4.25 85.05-4.25L85.05-4.25Q85.69-4.25 86.86-4.44 88.03-4.64 89.11-5.08L89.11-5.08 89.11-1.46Q87.84-0.78 86.35-0.27 84.86 0.24 83.39 0.24L83.39 0.24Q82.22 0.24 81.29 0.02 80.37-0.2 79.56-0.66 78.75-1.12 78.02-1.71 77.29-2.29 76.56-3.03L76.56-3.03Q75.73-3.86 75.24-4.96 74.75-6.05 74.53-7.25 74.31-8.45 74.29-9.67 74.26-10.89 74.26-12.06L74.26-12.06 74.26-27.54 80.22-27.54ZM91.11-27.54L97.07-27.54 97.07 0 91.74 0 91.11-2.83 91.11-27.54ZM105.36-27.54L110.69-27.54 111.32-24.71 111.32 0 105.36 0 105.36-27.54ZM133.73-27.83L133.73-27.83Q135.39-27.83 136.86-27.17 138.32-26.51 139.42-25.29 140.52-24.07 141.13-22.39 141.74-20.7 141.74-18.75L141.74-18.75 141.74 0 135.88 0 135.88-14.99Q135.88-16.65 135.86-18.14 135.83-19.63 135.54-20.8 135.25-21.97 134.59-22.63 133.93-23.29 132.56-23.29L132.56-23.29Q132.22-23.29 131.1-23.14 129.97-23 128.51-22.31L128.51-22.31 128.51-26.17Q129.83-26.95 131.19-27.39 132.56-27.83 133.73-27.83ZM125.29-24.07L125.29-24.07Q125.87-23.19 126.14-22.19 126.41-21.19 126.48-20.12 126.56-19.04 126.53-17.9 126.51-16.75 126.51-15.48L126.51-15.48 126.51 0 120.6 0 120.6-14.99Q120.6-16.65 120.6-18.14 120.6-19.63 120.31-20.8 120.01-21.97 119.33-22.63 118.64-23.29 117.33-23.29L117.33-23.29Q116.74-23.29 115.59-23.07 114.45-22.85 113.32-22.31L113.32-22.31 113.32-26.17Q114.49-26.86 115.84-27.29 117.18-27.73 118.5-27.73L118.5-27.73Q120.74-27.73 122.28-26.81 123.82-25.88 125.29-24.07Z" fill="white"></path><path d="M176.16-30.42L176.16-30.42Q175.92-30.52 175.58-30.76 175.23-31.01 174.6-31.23 173.96-31.45 172.99-31.59 172.01-31.74 170.5-31.64L170.5-31.64 170.5-36.57Q172.65-36.52 174.87-36.11 177.09-35.69 178.46-34.81L178.46-34.81Q178.16-34.18 177.77-33.42 177.38-32.67 177.04-32.01 176.7-31.35 176.45-30.91 176.21-30.47 176.16-30.42ZM159.32-26.51L159.32-26.51Q159.32-28.66 160.05-30.37 160.78-32.08 162.03-33.37 163.27-34.67 164.96-35.42 166.64-36.18 168.5-36.43L168.5-36.43 168.5-31.3Q166.93-30.76 165.91-29.42 164.88-28.08 164.88-26.71L164.88-26.71Q164.88-24.8 165.91-23.63 166.93-22.46 168.5-21.58L168.5-21.58 168.5-16.02Q166.88-16.8 165.27-17.7 163.66-18.6 162.34-19.82 161.02-21.04 160.17-22.66 159.32-24.27 159.32-26.51ZM159.07-2.39L160.1-6.59Q160.78-6.2 161.83-5.83 162.88-5.47 164-5.15 165.13-4.83 166.25-4.64 167.37-4.44 168.35-4.44L168.35-4.44 168.5-4.44 168.5 0.2 168.4 0.2Q167.23 0.2 165.98 0.07 164.74-0.05 163.47-0.34 162.2-0.63 161.05-1.15 159.9-1.66 159.07-2.39L159.07-2.39ZM170.5-14.89L170.5-20.61Q172.11-19.87 173.79-19.04 175.48-18.21 176.84-17.02 178.21-15.82 179.09-14.11 179.97-12.4 179.97-9.86L179.97-9.86Q179.97-8.11 179.31-6.45 178.65-4.79 177.46-3.44 176.26-2.1 174.5-1.17 172.74-0.24 170.5 0.05L170.5 0.05 170.5-4.64Q174.5-5.62 174.5-9.96L174.5-9.96Q174.5-11.67 173.38-12.79 172.26-13.92 170.5-14.89L170.5-14.89ZM207.21-27.54L197.55-13.82 208.48 0 201.74 0 193.74-10.55 193.74-17.33 200.57-27.54 207.21-27.54ZM191.74 0L185.78 0 185.78-37.94 191.74-37.94 191.74 0ZM227.28-23.19L227.28-27.78Q229.92-27.54 232.04-26.37 234.16-25.2 235.68-23.34 237.19-21.48 238-19.09 238.8-16.7 238.8-14.11L238.8-14.11Q238.8-12.94 238.66-11.77L238.66-11.77 221.91-11.77 221.91-16.06 233.19-16.06Q233.19-17.33 232.77-18.51 232.36-19.68 231.55-20.68 230.75-21.68 229.67-22.36 228.6-23.05 227.28-23.19L227.28-23.19ZM227.08-4.59L227.08-4.59Q227.62-4.59 228.43-4.71 229.23-4.83 230.14-5.15 231.04-5.47 231.94-5.96 232.85-6.45 233.53-7.13L233.53-7.13 235.68-3.86Q234.07-1.86 231.92-0.83 229.77 0.2 226.45 0.2L226.45 0.2Q223.76 0.2 221.42-0.9 219.08-2 217.42-3.91 215.76-5.81 214.78-8.35 213.8-10.89 213.8-13.82L213.8-13.82Q213.8-16.6 214.71-19.09 215.61-21.58 217.17-23.46 218.73-25.34 220.81-26.51 222.88-27.69 225.28-27.83L225.28-27.83 225.28-23.14Q223.47-22.8 222.3-21.68 221.13-20.56 220.47-19.12 219.81-17.68 219.54-16.16 219.27-14.65 219.27-13.57L219.27-13.57Q219.27-11.67 219.74-10.03 220.2-8.4 221.18-7.2 222.15-6.01 223.59-5.3 225.03-4.59 227.08-4.59ZM252.77-37.94L252.77-8.4Q252.77-6.74 253.2-5.79 253.64-4.83 254.43-4.37 255.21-3.91 256.21-3.76 257.21-3.61 258.38-3.61L258.38-3.61 258.38 0Q257.75 0.1 257.06 0.15L257.06 0.15Q256.52 0.2 255.79 0.22 255.06 0.24 254.33 0.24L254.33 0.24Q253.6 0.24 252.86 0.2 252.13 0.15 251.54 0.05L251.54 0.05Q249.88-0.29 248.96-1.42 248.03-2.54 247.54-3.93 247.05-5.32 246.93-6.64 246.81-7.96 246.81-8.69L246.81-8.69 246.81-9.28 246.81-37.94 252.77-37.94ZM277.42-23.19L277.42-27.78Q280.06-27.54 282.18-26.37 284.31-25.2 285.82-23.34 287.33-21.48 288.14-19.09 288.94-16.7 288.94-14.11L288.94-14.11Q288.94-12.94 288.8-11.77L288.8-11.77 272.05-11.77 272.05-16.06 283.33-16.06Q283.33-17.33 282.91-18.51 282.5-19.68 281.69-20.68 280.89-21.68 279.81-22.36 278.74-23.05 277.42-23.19L277.42-23.19ZM277.23-4.59L277.23-4.59Q277.76-4.59 278.57-4.71 279.37-4.83 280.28-5.15 281.18-5.47 282.08-5.96 282.99-6.45 283.67-7.13L283.67-7.13 285.82-3.86Q284.21-1.86 282.06-0.83 279.91 0.2 276.59 0.2L276.59 0.2Q273.91 0.2 271.56-0.9 269.22-2 267.56-3.91 265.9-5.81 264.92-8.35 263.94-10.89 263.94-13.82L263.94-13.82Q263.94-16.6 264.85-19.09 265.75-21.58 267.31-23.46 268.88-25.34 270.95-26.51 273.03-27.69 275.42-27.83L275.42-27.83 275.42-23.14Q273.61-22.8 272.44-21.68 271.27-20.56 270.61-19.12 269.95-17.68 269.68-16.16 269.41-14.65 269.41-13.57L269.41-13.57Q269.41-11.67 269.88-10.03 270.34-8.4 271.32-7.2 272.29-6.01 273.73-5.3 275.17-4.59 277.23-4.59ZM304.91-23.54L304.91-8.35Q304.91-6.69 305.35-5.76 305.79-4.83 306.59-4.35 307.4-3.86 308.4-3.74 309.4-3.61 310.52-3.61L310.52-3.61 310.52 0Q309.89 0.1 309.25 0.15L309.25 0.15Q308.72 0.2 307.96 0.22 307.2 0.24 306.47 0.24L306.47 0.24Q305.74 0.24 304.98 0.2 304.23 0.15 303.69 0.05L303.69 0.05Q302.03-0.24 301.1-1.39 300.17-2.54 299.71-3.93 299.24-5.32 299.12-6.64 299-7.96 299-8.69L299-8.69 299-23.54 295.39-23.54 295.39-27.54 299-27.54 299-35.35 304.91-35.35 304.91-27.54 309.3-27.54 309.3-23.54 304.91-23.54ZM330.39-23.1L330.39-27.69Q333.08-27.54 335.28-26.39 337.47-25.24 338.96-23.36 340.45-21.48 341.28-18.99 342.11-16.5 342.11-13.67L342.11-13.67Q342.11-10.84 341.26-8.37 340.4-5.91 338.89-4.08 337.38-2.25 335.18-1.12 332.98 0 330.39 0.2L330.39 0.2 330.39-4.49Q332.84-5.03 334.37-7.57 335.91-10.11 335.91-13.67L335.91-13.67Q335.91-15.48 335.55-17.07 335.18-18.65 334.45-19.92 333.71-21.19 332.69-22.02 331.66-22.85 330.39-23.1L330.39-23.1ZM316.77-13.77L316.77-13.77Q316.77-16.6 317.6-19.04 318.43-21.48 319.97-23.32 321.51-25.15 323.66-26.27 325.8-27.39 328.39-27.64L328.39-27.64 328.39-23.1Q325.95-22.56 324.49-20.02 323.02-17.48 323.02-13.92L323.02-13.92Q323.02-12.11 323.39-10.5 323.75-8.89 324.44-7.62 325.12-6.35 326.12-5.52 327.12-4.69 328.39-4.49L328.39-4.49 328.39 0.2Q325.71 0 323.56-1.15 321.41-2.29 319.9-4.15 318.38-6.01 317.58-8.5 316.77-10.99 316.77-13.77ZM349.78-27.54L355.05-27.54 355.68-24.76 355.68 0 349.78 0 349.78-27.54ZM370.28-24.51L370.28-24.51Q371.11-23.68 371.58-22.58 372.04-21.48 372.26-20.29 372.48-19.09 372.53-17.87 372.58-16.65 372.58-15.48L372.58-15.48 372.58-0.98 372.58 0 366.62 0 366.62-14.99Q366.62-16.65 366.48-18.16 366.33-19.68 365.79-20.85 365.26-22.02 364.33-22.68 363.4-23.34 361.74-23.34L361.74-23.34Q361.06-23.34 359.91-23.12 358.76-22.9 357.69-22.41L357.69-22.41 357.69-26.17Q359.01-26.86 360.54-27.34 362.08-27.83 363.55-27.83L363.55-27.83Q365.74-27.83 367.26-26.93 368.77-26.03 370.28-24.51Z" fill="black"></path></g></svg></g></svg></g></svg></g></svg></g><g transform="matrix(1,0,0,1,148.56408471194723,0)"><svg viewBox="0 0 98.39183057610552 98.39183057610552" height="98.39183057610552" width="98.39183057610552"><g><svg></svg></g><g id="SvgjsG2385"><svg viewBox="0 0 98.39183057610552 98.39183057610552" height="98.39183057610552" width="98.39183057610552"><g><path d="M0 49.196c0-27.17 22.026-49.196 49.196-49.196 27.17 0 49.196 22.026 49.196 49.196 0 27.17-22.026 49.196-49.196 49.196-27.17 0-49.196-22.026-49.196-49.196zM49.196 94.748c25.158 0 45.552-20.394 45.552-45.552 0-25.158-20.394-45.552-45.552-45.552-25.158 0-45.552 20.394-45.552 45.552 0 25.158 20.394 45.552 45.552 45.552z" fill="black" stroke="transparent"></path></g><g transform="matrix(1,0,0,1,20.72632965917556,37.91997699924146)"><svg viewBox="0 0 56.9391712577544 22.55187657762259" height="22.55187657762259" width="56.9391712577544"><g><svg xmlns="http://www.w3.org/2000/svg" xmlns:xlink="http://www.w3.org/1999/xlink" version="1.1" x="0" y="0" viewBox="0.52 29.195999999999998 94.95300070888244 37.60799999999999" enable-background="new 0 0 96 96" xml:space="preserve" height="22.55187657762259" width="56.9391712577544" class="icon-cg-0" data-fill-palette-color="accent" id="SvgjsSvg2384"><path d="M68.729 31.448c-0.908 0-1.756 0.072-2.557 0.216-0.951 0.168-1.648 1-1.648 1.964v13.568h-4v-12c0-1.104-0.899-2-2-2-1.104 0-2 0.896-2 2v12h-4v-16c0-1.104-0.899-2-2-2-1.104 0-2 0.896-2 2v16h-4v-16c0-1.104-0.896-2-2-2s-2 0.896-2 2v16h-4v-12c0-1.104-0.896-2-2-2s-2 0.896-2 2v12h-4v-8c0-1.104-0.896-2-2-2s-2 0.896-2 2v8h-4v-4c0-1.104-0.896-2-2-2s-2 0.896-2 2v3.568L3.72 37.204c-0.616-0.456-1.424-0.524-2.096-0.184-0.676 0.336-1.104 1.032-1.104 1.784v20.78c0 0.752 0.428 1.448 1.104 1.788 0.284 0.144 0.588 0.212 0.896 0.212 0.42 0 0.844-0.136 1.196-0.4L16.52 51.62v3.571c0 1.101 0.896 2 2 2s2-0.899 2-2v-4h4v8c0 1.101 0.896 2 2 2s2-0.899 2-2v-8h4v12c0 1.101 0.896 2 2 2s2-0.899 2-2v-12h4v12c0 1.101 0.896 2 2 2s2-0.899 2-2v-12h4v12c0 1.101 0.896 2 2 2 1.101 0 2-0.899 2-2v-12h4v8c0 1.101 0.896 2 2 2 1.101 0 2-0.899 2-2v-8h4v13.564c0 1.053 0.813 1.92 1.869 1.996 0.531 0.036 1.075 0.053 1.623 0.053 11.992 0 27.461-8.541 27.461-17.609C95.477 40.22 78.552 31.448 68.729 31.448z" fill="black"></path></svg></g></svg></g></svg></g></svg></g><g></g></svg></g><defs><mask></mask></defs></svg><rect width="395.52" height="157.88120438970364" fill="black" stroke="none" visibility="hidden"></rect></g></mask><linearGradient x1="0" x2="1" y1="0.5" y2="0.5" id="30e4ef0c-51ff-488f-b4d9-f36f31628567"><stop stop-color="#f00b51" offset="0"></stop><stop stop-color="#730062" offset="1"></stop></linearGradient><rect width="395.52" height="157.88120438970364" fill="#000000" mask="url(#4e9b0388-f408-4758-9196-f7b49b068d6b)" data-fill-palette-color="primary"></rect><mask id="25746611-ae49-4a75-819f-e63af63b0aa4"><g id="SvgjsG2401"><svg viewBox="0 0 395.52 157.88120438970364" height="157.88120438970364" width="395.52"><g><svg viewBox="0 0 395.52 157.88120438970364" height="157.88120438970364" width="395.52"><g transform="matrix(1,0,0,1,0,117.47140036566392)"><svg viewBox="0 0 395.52 40.409804024039715" height="40.409804024039715" width="395.52"><g id="SvgjsG2400"><svg viewBox="0 0 395.52 40.409804024039715" height="40.409804024039715" width="395.52" id="SvgjsSvg2399"><g><svg viewBox="0 0 395.52 40.409804024039715" height="40.409804024039715" width="395.52"><g transform="matrix(1,0,0,1,0,0)"><svg width="395.52" viewBox="3.08 -37.94 369.50000000000006 38.18" height="40.409804024039715" data-palette-color="url(#30e4ef0c-51ff-488f-b4d9-f36f31628567)"><g class="wordmark-text-0" data-fill-palette-color="primary" id="SvgjsG2398"><path d="M176.16-30.42L176.16-30.42Q175.92-30.52 175.58-30.76 175.23-31.01 174.6-31.23 173.96-31.45 172.99-31.59 172.01-31.74 170.5-31.64L170.5-31.64 170.5-36.57Q172.65-36.52 174.87-36.11 177.09-35.69 178.46-34.81L178.46-34.81Q178.16-34.18 177.77-33.42 177.38-32.67 177.04-32.01 176.7-31.35 176.45-30.91 176.21-30.47 176.16-30.42ZM159.32-26.51L159.32-26.51Q159.32-28.66 160.05-30.37 160.78-32.08 162.03-33.37 163.27-34.67 164.96-35.42 166.64-36.18 168.5-36.43L168.5-36.43 168.5-31.3Q166.93-30.76 165.91-29.42 164.88-28.08 164.88-26.71L164.88-26.71Q164.88-24.8 165.91-23.63 166.93-22.46 168.5-21.58L168.5-21.58 168.5-16.02Q166.88-16.8 165.27-17.7 163.66-18.6 162.34-19.82 161.02-21.04 160.17-22.66 159.32-24.27 159.32-26.51ZM159.07-2.39L160.1-6.59Q160.78-6.2 161.83-5.83 162.88-5.47 164-5.15 165.13-4.83 166.25-4.64 167.37-4.44 168.35-4.44L168.35-4.44 168.5-4.44 168.5 0.2 168.4 0.2Q167.23 0.2 165.98 0.07 164.74-0.05 163.47-0.34 162.2-0.63 161.05-1.15 159.9-1.66 159.07-2.39L159.07-2.39ZM170.5-14.89L170.5-20.61Q172.11-19.87 173.79-19.04 175.48-18.21 176.84-17.02 178.21-15.82 179.09-14.11 179.97-12.4 179.97-9.86L179.97-9.86Q179.97-8.11 179.31-6.45 178.65-4.79 177.46-3.44 176.26-2.1 174.5-1.17 172.74-0.24 170.5 0.05L170.5 0.05 170.5-4.64Q174.5-5.62 174.5-9.96L174.5-9.96Q174.5-11.67 173.38-12.79 172.26-13.92 170.5-14.89L170.5-14.89ZM207.21-27.54L197.55-13.82 208.48 0 201.74 0 193.74-10.55 193.74-17.33 200.57-27.54 207.21-27.54ZM191.74 0L185.78 0 185.78-37.94 191.74-37.94 191.74 0ZM227.28-23.19L227.28-27.78Q229.92-27.54 232.04-26.37 234.16-25.2 235.68-23.34 237.19-21.48 238-19.09 238.8-16.7 238.8-14.11L238.8-14.11Q238.8-12.94 238.66-11.77L238.66-11.77 221.91-11.77 221.91-16.06 233.19-16.06Q233.19-17.33 232.77-18.51 232.36-19.68 231.55-20.68 230.75-21.68 229.67-22.36 228.6-23.05 227.28-23.19L227.28-23.19ZM227.08-4.59L227.08-4.59Q227.62-4.59 228.43-4.71 229.23-4.83 230.14-5.15 231.04-5.47 231.94-5.96 232.85-6.45 233.53-7.13L233.53-7.13 235.68-3.86Q234.07-1.86 231.92-0.83 229.77 0.2 226.45 0.2L226.45 0.2Q223.76 0.2 221.42-0.9 219.08-2 217.42-3.91 215.76-5.81 214.78-8.35 213.8-10.89 213.8-13.82L213.8-13.82Q213.8-16.6 214.71-19.09 215.61-21.58 217.17-23.46 218.73-25.34 220.81-26.51 222.88-27.69 225.28-27.83L225.28-27.83 225.28-23.14Q223.47-22.8 222.3-21.68 221.13-20.56 220.47-19.12 219.81-17.68 219.54-16.16 219.27-14.65 219.27-13.57L219.27-13.57Q219.27-11.67 219.74-10.03 220.2-8.4 221.18-7.2 222.15-6.01 223.59-5.3 225.03-4.59 227.08-4.59ZM252.77-37.94L252.77-8.4Q252.77-6.74 253.2-5.79 253.64-4.83 254.43-4.37 255.21-3.91 256.21-3.76 257.21-3.61 258.38-3.61L258.38-3.61 258.38 0Q257.75 0.1 257.06 0.15L257.06 0.15Q256.52 0.2 255.79 0.22 255.06 0.24 254.33 0.24L254.33 0.24Q253.6 0.24 252.86 0.2 252.13 0.15 251.54 0.05L251.54 0.05Q249.88-0.29 248.96-1.42 248.03-2.54 247.54-3.93 247.05-5.32 246.93-6.64 246.81-7.96 246.81-8.69L246.81-8.69 246.81-9.28 246.81-37.94 252.77-37.94ZM277.42-23.19L277.42-27.78Q280.06-27.54 282.18-26.37 284.31-25.2 285.82-23.34 287.33-21.48 288.14-19.09 288.94-16.7 288.94-14.11L288.94-14.11Q288.94-12.94 288.8-11.77L288.8-11.77 272.05-11.77 272.05-16.06 283.33-16.06Q283.33-17.33 282.91-18.51 282.5-19.68 281.69-20.68 280.89-21.68 279.81-22.36 278.74-23.05 277.42-23.19L277.42-23.19ZM277.23-4.59L277.23-4.59Q277.76-4.59 278.57-4.71 279.37-4.83 280.28-5.15 281.18-5.47 282.08-5.96 282.99-6.45 283.67-7.13L283.67-7.13 285.82-3.86Q284.21-1.86 282.06-0.83 279.91 0.2 276.59 0.2L276.59 0.2Q273.91 0.2 271.56-0.9 269.22-2 267.56-3.91 265.9-5.81 264.92-8.35 263.94-10.89 263.94-13.82L263.94-13.82Q263.94-16.6 264.85-19.09 265.75-21.58 267.31-23.46 268.88-25.34 270.95-26.51 273.03-27.69 275.42-27.83L275.42-27.83 275.42-23.14Q273.61-22.8 272.44-21.68 271.27-20.56 270.61-19.12 269.95-17.68 269.68-16.16 269.41-14.65 269.41-13.57L269.41-13.57Q269.41-11.67 269.88-10.03 270.34-8.4 271.32-7.2 272.29-6.01 273.73-5.3 275.17-4.59 277.23-4.59ZM304.91-23.54L304.91-8.35Q304.91-6.69 305.35-5.76 305.79-4.83 306.59-4.35 307.4-3.86 308.4-3.74 309.4-3.61 310.52-3.61L310.52-3.61 310.52 0Q309.89 0.1 309.25 0.15L309.25 0.15Q308.72 0.2 307.96 0.22 307.2 0.24 306.47 0.24L306.47 0.24Q305.74 0.24 304.98 0.2 304.23 0.15 303.69 0.05L303.69 0.05Q302.03-0.24 301.1-1.39 300.17-2.54 299.71-3.93 299.24-5.32 299.12-6.64 299-7.96 299-8.69L299-8.69 299-23.54 295.39-23.54 295.39-27.54 299-27.54 299-35.35 304.91-35.35 304.91-27.54 309.3-27.54 309.3-23.54 304.91-23.54ZM330.39-23.1L330.39-27.69Q333.08-27.54 335.28-26.39 337.47-25.24 338.96-23.36 340.45-21.48 341.28-18.99 342.11-16.5 342.11-13.67L342.11-13.67Q342.11-10.84 341.26-8.37 340.4-5.91 338.89-4.08 337.38-2.25 335.18-1.12 332.98 0 330.39 0.2L330.39 0.2 330.39-4.49Q332.84-5.03 334.37-7.57 335.91-10.11 335.91-13.67L335.91-13.67Q335.91-15.48 335.55-17.07 335.18-18.65 334.45-19.92 333.71-21.19 332.69-22.02 331.66-22.85 330.39-23.1L330.39-23.1ZM316.77-13.77L316.77-13.77Q316.77-16.6 317.6-19.04 318.43-21.48 319.97-23.32 321.51-25.15 323.66-26.27 325.8-27.39 328.39-27.64L328.39-27.64 328.39-23.1Q325.95-22.56 324.49-20.02 323.02-17.48 323.02-13.92L323.02-13.92Q323.02-12.11 323.39-10.5 323.75-8.89 324.44-7.62 325.12-6.35 326.12-5.52 327.12-4.69 328.39-4.49L328.39-4.49 328.39 0.2Q325.71 0 323.56-1.15 321.41-2.29 319.9-4.15 318.38-6.01 317.58-8.5 316.77-10.99 316.77-13.77ZM349.78-27.54L355.05-27.54 355.68-24.76 355.68 0 349.78 0 349.78-27.54ZM370.28-24.51L370.28-24.51Q371.11-23.68 371.58-22.58 372.04-21.48 372.26-20.29 372.48-19.09 372.53-17.87 372.58-16.65 372.58-15.48L372.58-15.48 372.58-0.98 372.58 0 366.62 0 366.62-14.99Q366.62-16.65 366.48-18.16 366.33-19.68 365.79-20.85 365.26-22.02 364.33-22.68 363.4-23.34 361.74-23.34L361.74-23.34Q361.06-23.34 359.91-23.12 358.76-22.9 357.69-22.41L357.69-22.41 357.69-26.17Q359.01-26.86 360.54-27.34 362.08-27.83 363.55-27.83L363.55-27.83Q365.74-27.83 367.26-26.93 368.77-26.03 370.28-24.51Z" fill="white"></path></g></svg></g></svg></g></svg></g></svg></g><g transform="matrix(1,0,0,1,148.56408471194723,0)"><svg viewBox="0 0 98.39183057610552 98.39183057610552" height="98.39183057610552" width="98.39183057610552"><g><svg></svg></g><g id="SvgjsG2397"><svg viewBox="0 0 98.39183057610552 98.39183057610552" height="98.39183057610552" width="98.39183057610552"><g><path d="M0 49.196c0-27.17 22.026-49.196 49.196-49.196 27.17 0 49.196 22.026 49.196 49.196 0 27.17-22.026 49.196-49.196 49.196-27.17 0-49.196-22.026-49.196-49.196zM49.196 94.748c25.158 0 45.552-20.394 45.552-45.552 0-25.158-20.394-45.552-45.552-45.552-25.158 0-45.552 20.394-45.552 45.552 0 25.158 20.394 45.552 45.552 45.552z" fill="black" stroke="transparent"></path></g><g transform="matrix(1,0,0,1,20.72632965917556,37.91997699924146)"><svg viewBox="0 0 56.9391712577544 22.55187657762259" height="22.55187657762259" width="56.9391712577544"><g><svg xmlns="http://www.w3.org/2000/svg" xmlns:xlink="http://www.w3.org/1999/xlink" version="1.1" x="0" y="0" viewBox="0.52 29.195999999999998 94.95300070888244 37.60799999999999" enable-background="new 0 0 96 96" xml:space="preserve" height="22.55187657762259" width="56.9391712577544" class="icon-cg-0" data-fill-palette-color="accent" id="SvgjsSvg2396"><path d="M68.729 31.448c-0.908 0-1.756 0.072-2.557 0.216-0.951 0.168-1.648 1-1.648 1.964v13.568h-4v-12c0-1.104-0.899-2-2-2-1.104 0-2 0.896-2 2v12h-4v-16c0-1.104-0.899-2-2-2-1.104 0-2 0.896-2 2v16h-4v-16c0-1.104-0.896-2-2-2s-2 0.896-2 2v16h-4v-12c0-1.104-0.896-2-2-2s-2 0.896-2 2v12h-4v-8c0-1.104-0.896-2-2-2s-2 0.896-2 2v8h-4v-4c0-1.104-0.896-2-2-2s-2 0.896-2 2v3.568L3.72 37.204c-0.616-0.456-1.424-0.524-2.096-0.184-0.676 0.336-1.104 1.032-1.104 1.784v20.78c0 0.752 0.428 1.448 1.104 1.788 0.284 0.144 0.588 0.212 0.896 0.212 0.42 0 0.844-0.136 1.196-0.4L16.52 51.62v3.571c0 1.101 0.896 2 2 2s2-0.899 2-2v-4h4v8c0 1.101 0.896 2 2 2s2-0.899 2-2v-8h4v12c0 1.101 0.896 2 2 2s2-0.899 2-2v-12h4v12c0 1.101 0.896 2 2 2s2-0.899 2-2v-12h4v12c0 1.101 0.896 2 2 2 1.101 0 2-0.899 2-2v-12h4v8c0 1.101 0.896 2 2 2 1.101 0 2-0.899 2-2v-8h4v13.564c0 1.053 0.813 1.92 1.869 1.996 0.531 0.036 1.075 0.053 1.623 0.053 11.992 0 27.461-8.541 27.461-17.609C95.477 40.22 78.552 31.448 68.729 31.448z" fill="black"></path></svg></g></svg></g></svg></g></svg></g><g></g></svg></g><defs><mask></mask></defs><mask><g id="SvgjsG2395"><svg viewBox="0 0 395.52 157.88120438970364" height="157.88120438970364" width="395.52"><g><svg viewBox="0 0 395.52 157.88120438970364" height="157.88120438970364" width="395.52"><g transform="matrix(1,0,0,1,0,117.47140036566392)"><svg viewBox="0 0 395.52 40.409804024039715" height="40.409804024039715" width="395.52"><g id="SvgjsG2394"><svg viewBox="0 0 395.52 40.409804024039715" height="40.409804024039715" width="395.52" id="SvgjsSvg2393"><g><svg viewBox="0 0 395.52 40.409804024039715" height="40.409804024039715" width="395.52"><g transform="matrix(1,0,0,1,0,0)"><svg width="395.52" viewBox="3.08 -37.94 369.50000000000006 38.18" height="40.409804024039715" data-palette-color="url(#30e4ef0c-51ff-488f-b4d9-f36f31628567)"><g class="wordmark-text-0" data-fill-palette-color="primary" id="SvgjsG2392"><path d="M21.48-35.94L33.98 0 27.93 0 18.6-26.95 9.18 0 3.08 0 15.67-35.94 21.48-35.94ZM15.28-11.43L21.83-11.43 23.24-7.47 13.92-7.47 15.28-11.43ZM49.85-13.82L40.82-27.54 47.51-27.54 52.63-18.51 52.63-8.25 47.65 0 40.87 0 49.85-13.82ZM59.86-27.54L66.55-27.54 57.52-13.82 66.5 0 59.71 0 54.64-8.89 54.64-19.29 59.86-27.54ZM80.22-27.54L80.22-12.55Q80.22-10.84 80.37-9.35 80.51-7.86 81-6.74 81.49-5.62 82.47-4.93 83.44-4.25 85.05-4.25L85.05-4.25Q85.69-4.25 86.86-4.44 88.03-4.64 89.11-5.08L89.11-5.08 89.11-1.46Q87.84-0.78 86.35-0.27 84.86 0.24 83.39 0.24L83.39 0.24Q82.22 0.24 81.29 0.02 80.37-0.2 79.56-0.66 78.75-1.12 78.02-1.71 77.29-2.29 76.56-3.03L76.56-3.03Q75.73-3.86 75.24-4.96 74.75-6.05 74.53-7.25 74.31-8.45 74.29-9.67 74.26-10.89 74.26-12.06L74.26-12.06 74.26-27.54 80.22-27.54ZM91.11-27.54L97.07-27.54 97.07 0 91.74 0 91.11-2.83 91.11-27.54ZM105.36-27.54L110.69-27.54 111.32-24.71 111.32 0 105.36 0 105.36-27.54ZM133.73-27.83L133.73-27.83Q135.39-27.83 136.86-27.17 138.32-26.51 139.42-25.29 140.52-24.07 141.13-22.39 141.74-20.7 141.74-18.75L141.74-18.75 141.74 0 135.88 0 135.88-14.99Q135.88-16.65 135.86-18.14 135.83-19.63 135.54-20.8 135.25-21.97 134.59-22.63 133.93-23.29 132.56-23.29L132.56-23.29Q132.22-23.29 131.1-23.14 129.97-23 128.51-22.31L128.51-22.31 128.51-26.17Q129.83-26.95 131.19-27.39 132.56-27.83 133.73-27.83ZM125.29-24.07L125.29-24.07Q125.87-23.19 126.14-22.19 126.41-21.19 126.48-20.12 126.56-19.04 126.53-17.9 126.51-16.75 126.51-15.48L126.51-15.48 126.51 0 120.6 0 120.6-14.99Q120.6-16.65 120.6-18.14 120.6-19.63 120.31-20.8 120.01-21.97 119.33-22.63 118.64-23.29 117.33-23.29L117.33-23.29Q116.74-23.29 115.59-23.07 114.45-22.85 113.32-22.31L113.32-22.31 113.32-26.17Q114.49-26.86 115.84-27.29 117.18-27.73 118.5-27.73L118.5-27.73Q120.74-27.73 122.28-26.81 123.82-25.88 125.29-24.07Z" fill="black"></path><path d="M176.16-30.42L176.16-30.42Q175.92-30.52 175.58-30.76 175.23-31.01 174.6-31.23 173.96-31.45 172.99-31.59 172.01-31.74 170.5-31.64L170.5-31.64 170.5-36.57Q172.65-36.52 174.87-36.11 177.09-35.69 178.46-34.81L178.46-34.81Q178.16-34.18 177.77-33.42 177.38-32.67 177.04-32.01 176.7-31.35 176.45-30.91 176.21-30.47 176.16-30.42ZM159.32-26.51L159.32-26.51Q159.32-28.66 160.05-30.37 160.78-32.08 162.03-33.37 163.27-34.67 164.96-35.42 166.64-36.18 168.5-36.43L168.5-36.43 168.5-31.3Q166.93-30.76 165.91-29.42 164.88-28.08 164.88-26.71L164.88-26.71Q164.88-24.8 165.91-23.63 166.93-22.46 168.5-21.58L168.5-21.58 168.5-16.02Q166.88-16.8 165.27-17.7 163.66-18.6 162.34-19.82 161.02-21.04 160.17-22.66 159.32-24.27 159.32-26.51ZM159.07-2.39L160.1-6.59Q160.78-6.2 161.83-5.83 162.88-5.47 164-5.15 165.13-4.83 166.25-4.64 167.37-4.44 168.35-4.44L168.35-4.44 168.5-4.44 168.5 0.2 168.4 0.2Q167.23 0.2 165.98 0.07 164.74-0.05 163.47-0.34 162.2-0.63 161.05-1.15 159.9-1.66 159.07-2.39L159.07-2.39ZM170.5-14.89L170.5-20.61Q172.11-19.87 173.79-19.04 175.48-18.21 176.84-17.02 178.21-15.82 179.09-14.11 179.97-12.4 179.97-9.86L179.97-9.86Q179.97-8.11 179.31-6.45 178.65-4.79 177.46-3.44 176.26-2.1 174.5-1.17 172.74-0.24 170.5 0.05L170.5 0.05 170.5-4.64Q174.5-5.62 174.5-9.96L174.5-9.96Q174.5-11.67 173.38-12.79 172.26-13.92 170.5-14.89L170.5-14.89ZM207.21-27.54L197.55-13.82 208.48 0 201.74 0 193.74-10.55 193.74-17.33 200.57-27.54 207.21-27.54ZM191.74 0L185.78 0 185.78-37.94 191.74-37.94 191.74 0ZM227.28-23.19L227.28-27.78Q229.92-27.54 232.04-26.37 234.16-25.2 235.68-23.34 237.19-21.48 238-19.09 238.8-16.7 238.8-14.11L238.8-14.11Q238.8-12.94 238.66-11.77L238.66-11.77 221.91-11.77 221.91-16.06 233.19-16.06Q233.19-17.33 232.77-18.51 232.36-19.68 231.55-20.68 230.75-21.68 229.67-22.36 228.6-23.05 227.28-23.19L227.28-23.19ZM227.08-4.59L227.08-4.59Q227.62-4.59 228.43-4.71 229.23-4.83 230.14-5.15 231.04-5.47 231.94-5.96 232.85-6.45 233.53-7.13L233.53-7.13 235.68-3.86Q234.07-1.86 231.92-0.83 229.77 0.2 226.45 0.2L226.45 0.2Q223.76 0.2 221.42-0.9 219.08-2 217.42-3.91 215.76-5.81 214.78-8.35 213.8-10.89 213.8-13.82L213.8-13.82Q213.8-16.6 214.71-19.09 215.61-21.58 217.17-23.46 218.73-25.34 220.81-26.51 222.88-27.69 225.28-27.83L225.28-27.83 225.28-23.14Q223.47-22.8 222.3-21.68 221.13-20.56 220.47-19.12 219.81-17.68 219.54-16.16 219.27-14.65 219.27-13.57L219.27-13.57Q219.27-11.67 219.74-10.03 220.2-8.4 221.18-7.2 222.15-6.01 223.59-5.3 225.03-4.59 227.08-4.59ZM252.77-37.94L252.77-8.4Q252.77-6.74 253.2-5.79 253.64-4.83 254.43-4.37 255.21-3.91 256.21-3.76 257.21-3.61 258.38-3.61L258.38-3.61 258.38 0Q257.75 0.1 257.06 0.15L257.06 0.15Q256.52 0.2 255.79 0.22 255.06 0.24 254.33 0.24L254.33 0.24Q253.6 0.24 252.86 0.2 252.13 0.15 251.54 0.05L251.54 0.05Q249.88-0.29 248.96-1.42 248.03-2.54 247.54-3.93 247.05-5.32 246.93-6.64 246.81-7.96 246.81-8.69L246.81-8.69 246.81-9.28 246.81-37.94 252.77-37.94ZM277.42-23.19L277.42-27.78Q280.06-27.54 282.18-26.37 284.31-25.2 285.82-23.34 287.33-21.48 288.14-19.09 288.94-16.7 288.94-14.11L288.94-14.11Q288.94-12.94 288.8-11.77L288.8-11.77 272.05-11.77 272.05-16.06 283.33-16.06Q283.33-17.33 282.91-18.51 282.5-19.68 281.69-20.68 280.89-21.68 279.81-22.36 278.74-23.05 277.42-23.19L277.42-23.19ZM277.23-4.59L277.23-4.59Q277.76-4.59 278.57-4.71 279.37-4.83 280.28-5.15 281.18-5.47 282.08-5.96 282.99-6.45 283.67-7.13L283.67-7.13 285.82-3.86Q284.21-1.86 282.06-0.83 279.91 0.2 276.59 0.2L276.59 0.2Q273.91 0.2 271.56-0.9 269.22-2 267.56-3.91 265.9-5.81 264.92-8.35 263.94-10.89 263.94-13.82L263.94-13.82Q263.94-16.6 264.85-19.09 265.75-21.58 267.31-23.46 268.88-25.34 270.95-26.51 273.03-27.69 275.42-27.83L275.42-27.83 275.42-23.14Q273.61-22.8 272.44-21.68 271.27-20.56 270.61-19.12 269.95-17.68 269.68-16.16 269.41-14.65 269.41-13.57L269.41-13.57Q269.41-11.67 269.88-10.03 270.34-8.4 271.32-7.2 272.29-6.01 273.73-5.3 275.17-4.59 277.23-4.59ZM304.91-23.54L304.91-8.35Q304.91-6.69 305.35-5.76 305.79-4.83 306.59-4.35 307.4-3.86 308.4-3.74 309.4-3.61 310.52-3.61L310.52-3.61 310.52 0Q309.89 0.1 309.25 0.15L309.25 0.15Q308.72 0.2 307.96 0.22 307.2 0.24 306.47 0.24L306.47 0.24Q305.74 0.24 304.98 0.2 304.23 0.15 303.69 0.05L303.69 0.05Q302.03-0.24 301.1-1.39 300.17-2.54 299.71-3.93 299.24-5.32 299.12-6.64 299-7.96 299-8.69L299-8.69 299-23.54 295.39-23.54 295.39-27.54 299-27.54 299-35.35 304.91-35.35 304.91-27.54 309.3-27.54 309.3-23.54 304.91-23.54ZM330.39-23.1L330.39-27.69Q333.08-27.54 335.28-26.39 337.47-25.24 338.96-23.36 340.45-21.48 341.28-18.99 342.11-16.5 342.11-13.67L342.11-13.67Q342.11-10.84 341.26-8.37 340.4-5.91 338.89-4.08 337.38-2.25 335.18-1.12 332.98 0 330.39 0.2L330.39 0.2 330.39-4.49Q332.84-5.03 334.37-7.57 335.91-10.11 335.91-13.67L335.91-13.67Q335.91-15.48 335.55-17.07 335.18-18.65 334.45-19.92 333.71-21.19 332.69-22.02 331.66-22.85 330.39-23.1L330.39-23.1ZM316.77-13.77L316.77-13.77Q316.77-16.6 317.6-19.04 318.43-21.48 319.97-23.32 321.51-25.15 323.66-26.27 325.8-27.39 328.39-27.64L328.39-27.64 328.39-23.1Q325.95-22.56 324.49-20.02 323.02-17.48 323.02-13.92L323.02-13.92Q323.02-12.11 323.39-10.5 323.75-8.89 324.44-7.62 325.12-6.35 326.12-5.52 327.12-4.69 328.39-4.49L328.39-4.49 328.39 0.2Q325.71 0 323.56-1.15 321.41-2.29 319.9-4.15 318.38-6.01 317.58-8.5 316.77-10.99 316.77-13.77ZM349.78-27.54L355.05-27.54 355.68-24.76 355.68 0 349.78 0 349.78-27.54ZM370.28-24.51L370.28-24.51Q371.11-23.68 371.58-22.58 372.04-21.48 372.26-20.29 372.48-19.09 372.53-17.87 372.58-16.65 372.58-15.48L372.58-15.48 372.58-0.98 372.58 0 366.62 0 366.62-14.99Q366.62-16.65 366.48-18.16 366.33-19.68 365.79-20.85 365.26-22.02 364.33-22.68 363.4-23.34 361.74-23.34L361.74-23.34Q361.06-23.34 359.91-23.12 358.76-22.9 357.69-22.41L357.69-22.41 357.69-26.17Q359.01-26.86 360.54-27.34 362.08-27.83 363.55-27.83L363.55-27.83Q365.74-27.83 367.26-26.93 368.77-26.03 370.28-24.51Z" fill="black"></path></g></svg></g></svg></g></svg></g></svg></g><g transform="matrix(1,0,0,1,148.56408471194723,0)"><svg viewBox="0 0 98.39183057610552 98.39183057610552" height="98.39183057610552" width="98.39183057610552"><g><svg></svg></g><g id="SvgjsG2391"><svg viewBox="0 0 98.39183057610552 98.39183057610552" height="98.39183057610552" width="98.39183057610552"><g><path d="M0 49.196c0-27.17 22.026-49.196 49.196-49.196 27.17 0 49.196 22.026 49.196 49.196 0 27.17-22.026 49.196-49.196 49.196-27.17 0-49.196-22.026-49.196-49.196zM49.196 94.748c25.158 0 45.552-20.394 45.552-45.552 0-25.158-20.394-45.552-45.552-45.552-25.158 0-45.552 20.394-45.552 45.552 0 25.158 20.394 45.552 45.552 45.552z" fill="black" stroke="transparent"></path></g><g transform="matrix(1,0,0,1,20.72632965917556,37.91997699924146)"><svg viewBox="0 0 56.9391712577544 22.55187657762259" height="22.55187657762259" width="56.9391712577544"><g><svg xmlns="http://www.w3.org/2000/svg" xmlns:xlink="http://www.w3.org/1999/xlink" version="1.1" x="0" y="0" viewBox="0.52 29.195999999999998 94.95300070888244 37.60799999999999" enable-background="new 0 0 96 96" xml:space="preserve" height="22.55187657762259" width="56.9391712577544" class="icon-cg-0" data-fill-palette-color="accent" id="SvgjsSvg2390"><path d="M68.729 31.448c-0.908 0-1.756 0.072-2.557 0.216-0.951 0.168-1.648 1-1.648 1.964v13.568h-4v-12c0-1.104-0.899-2-2-2-1.104 0-2 0.896-2 2v12h-4v-16c0-1.104-0.899-2-2-2-1.104 0-2 0.896-2 2v16h-4v-16c0-1.104-0.896-2-2-2s-2 0.896-2 2v16h-4v-12c0-1.104-0.896-2-2-2s-2 0.896-2 2v12h-4v-8c0-1.104-0.896-2-2-2s-2 0.896-2 2v8h-4v-4c0-1.104-0.896-2-2-2s-2 0.896-2 2v3.568L3.72 37.204c-0.616-0.456-1.424-0.524-2.096-0.184-0.676 0.336-1.104 1.032-1.104 1.784v20.78c0 0.752 0.428 1.448 1.104 1.788 0.284 0.144 0.588 0.212 0.896 0.212 0.42 0 0.844-0.136 1.196-0.4L16.52 51.62v3.571c0 1.101 0.896 2 2 2s2-0.899 2-2v-4h4v8c0 1.101 0.896 2 2 2s2-0.899 2-2v-8h4v12c0 1.101 0.896 2 2 2s2-0.899 2-2v-12h4v12c0 1.101 0.896 2 2 2s2-0.899 2-2v-12h4v12c0 1.101 0.896 2 2 2 1.101 0 2-0.899 2-2v-12h4v8c0 1.101 0.896 2 2 2 1.101 0 2-0.899 2-2v-8h4v13.564c0 1.053 0.813 1.92 1.869 1.996 0.531 0.036 1.075 0.053 1.623 0.053 11.992 0 27.461-8.541 27.461-17.609C95.477 40.22 78.552 31.448 68.729 31.448z" fill="black"></path></svg></g></svg></g></svg></g></svg></g><g></g></svg></g><defs><mask></mask></defs></svg><rect width="395.52" height="157.88120438970364" fill="black" stroke="none" visibility="hidden"></rect></g></mask></svg><rect width="395.52" height="157.88120438970364" fill="black" stroke="none" visibility="hidden"></rect></g></mask><linearGradient x1="0" x2="1" y1="0.5" y2="0.5" id="9ceed967-da16-4ff6-8e05-e2c836b0f718"><stop stop-color="#f00b51" offset="0"></stop><stop stop-color="#730062" offset="1"></stop></linearGradient><rect width="395.52" height="157.88120438970364" fill="#000000" mask="url(#25746611-ae49-4a75-819f-e63af63b0aa4)" data-fill-palette-color="secondary"></rect><mask id="944a3428-cd9a-4414-99f9-45b1e6f8e8f5"><g id="SvgjsG2425"><svg viewBox="0 0 395.52 157.88120438970364" height="157.88120438970364" width="395.52"><g><svg viewBox="0 0 395.52 157.88120438970364" height="157.88120438970364" width="395.52"><g transform="matrix(1,0,0,1,0,117.47140036566392)"><svg viewBox="0 0 395.52 40.409804024039715" height="40.409804024039715" width="395.52"><g id="SvgjsG2424"><svg viewBox="0 0 395.52 40.409804024039715" height="40.409804024039715" width="395.52" id="SvgjsSvg2423"><g><svg viewBox="0 0 395.52 40.409804024039715" height="40.409804024039715" width="395.52"><g transform="matrix(1,0,0,1,0,0)"><svg width="395.52" viewBox="3.08 -37.94 369.50000000000006 38.18" height="40.409804024039715" data-palette-color="url(#30e4ef0c-51ff-488f-b4d9-f36f31628567)"><g class="wordmark-text-0" data-fill-palette-color="primary" id="SvgjsG2422"></g></svg></g></svg></g></svg></g></svg></g><g transform="matrix(1,0,0,1,148.56408471194723,0)"><svg viewBox="0 0 98.39183057610552 98.39183057610552" height="98.39183057610552" width="98.39183057610552"><g><svg></svg></g><g id="SvgjsG2421"><svg viewBox="0 0 98.39183057610552 98.39183057610552" height="98.39183057610552" width="98.39183057610552"><g><path d="M0 49.196c0-27.17 22.026-49.196 49.196-49.196 27.17 0 49.196 22.026 49.196 49.196 0 27.17-22.026 49.196-49.196 49.196-27.17 0-49.196-22.026-49.196-49.196zM49.196 94.748c25.158 0 45.552-20.394 45.552-45.552 0-25.158-20.394-45.552-45.552-45.552-25.158 0-45.552 20.394-45.552 45.552 0 25.158 20.394 45.552 45.552 45.552z" fill="white" stroke="transparent"></path></g><g transform="matrix(1,0,0,1,20.72632965917556,37.91997699924146)"><svg viewBox="0 0 56.9391712577544 22.55187657762259" height="22.55187657762259" width="56.9391712577544"><g><svg xmlns="http://www.w3.org/2000/svg" xmlns:xlink="http://www.w3.org/1999/xlink" version="1.1" x="0" y="0" viewBox="0.52 29.195999999999998 94.95300070888244 37.60799999999999" enable-background="new 0 0 96 96" xml:space="preserve" height="22.55187657762259" width="56.9391712577544" class="icon-cg-0" data-fill-palette-color="accent" id="SvgjsSvg2420"><path d="M68.729 31.448c-0.908 0-1.756 0.072-2.557 0.216-0.951 0.168-1.648 1-1.648 1.964v13.568h-4v-12c0-1.104-0.899-2-2-2-1.104 0-2 0.896-2 2v12h-4v-16c0-1.104-0.899-2-2-2-1.104 0-2 0.896-2 2v16h-4v-16c0-1.104-0.896-2-2-2s-2 0.896-2 2v16h-4v-12c0-1.104-0.896-2-2-2s-2 0.896-2 2v12h-4v-8c0-1.104-0.896-2-2-2s-2 0.896-2 2v8h-4v-4c0-1.104-0.896-2-2-2s-2 0.896-2 2v3.568L3.72 37.204c-0.616-0.456-1.424-0.524-2.096-0.184-0.676 0.336-1.104 1.032-1.104 1.784v20.78c0 0.752 0.428 1.448 1.104 1.788 0.284 0.144 0.588 0.212 0.896 0.212 0.42 0 0.844-0.136 1.196-0.4L16.52 51.62v3.571c0 1.101 0.896 2 2 2s2-0.899 2-2v-4h4v8c0 1.101 0.896 2 2 2s2-0.899 2-2v-8h4v12c0 1.101 0.896 2 2 2s2-0.899 2-2v-12h4v12c0 1.101 0.896 2 2 2s2-0.899 2-2v-12h4v12c0 1.101 0.896 2 2 2 1.101 0 2-0.899 2-2v-12h4v8c0 1.101 0.896 2 2 2 1.101 0 2-0.899 2-2v-8h4v13.564c0 1.053 0.813 1.92 1.869 1.996 0.531 0.036 1.075 0.053 1.623 0.053 11.992 0 27.461-8.541 27.461-17.609C95.477 40.22 78.552 31.448 68.729 31.448z" fill="white"></path></svg></g></svg></g></svg></g></svg></g><g></g></svg></g><defs><mask></mask></defs><mask><g id="SvgjsG2419"><svg viewBox="0 0 395.52 157.88120438970364" height="157.88120438970364" width="395.52"><g><svg viewBox="0 0 395.52 157.88120438970364" height="157.88120438970364" width="395.52"><g transform="matrix(1,0,0,1,0,117.47140036566392)"><svg viewBox="0 0 395.52 40.409804024039715" height="40.409804024039715" width="395.52"><g id="SvgjsG2418"><svg viewBox="0 0 395.52 40.409804024039715" height="40.409804024039715" width="395.52" id="SvgjsSvg2417"><g><svg viewBox="0 0 395.52 40.409804024039715" height="40.409804024039715" width="395.52"><g transform="matrix(1,0,0,1,0,0)"><svg width="395.52" viewBox="3.08 -37.94 369.50000000000006 38.18" height="40.409804024039715" data-palette-color="url(#30e4ef0c-51ff-488f-b4d9-f36f31628567)"><g class="wordmark-text-0" data-fill-palette-color="primary" id="SvgjsG2416"><path d="M21.48-35.94L33.98 0 27.93 0 18.6-26.95 9.18 0 3.08 0 15.67-35.94 21.48-35.94ZM15.28-11.43L21.83-11.43 23.24-7.47 13.92-7.47 15.28-11.43ZM49.85-13.82L40.82-27.54 47.51-27.54 52.63-18.51 52.63-8.25 47.65 0 40.87 0 49.85-13.82ZM59.86-27.54L66.55-27.54 57.52-13.82 66.5 0 59.71 0 54.64-8.89 54.64-19.29 59.86-27.54ZM80.22-27.54L80.22-12.55Q80.22-10.84 80.37-9.35 80.51-7.86 81-6.74 81.49-5.62 82.47-4.93 83.44-4.25 85.05-4.25L85.05-4.25Q85.69-4.25 86.86-4.44 88.03-4.64 89.11-5.08L89.11-5.08 89.11-1.46Q87.84-0.78 86.35-0.27 84.86 0.24 83.39 0.24L83.39 0.24Q82.22 0.24 81.29 0.02 80.37-0.2 79.56-0.66 78.75-1.12 78.02-1.71 77.29-2.29 76.56-3.03L76.56-3.03Q75.73-3.86 75.24-4.96 74.75-6.05 74.53-7.25 74.31-8.45 74.29-9.67 74.26-10.89 74.26-12.06L74.26-12.06 74.26-27.54 80.22-27.54ZM91.11-27.54L97.07-27.54 97.07 0 91.74 0 91.11-2.83 91.11-27.54ZM105.36-27.54L110.69-27.54 111.32-24.71 111.32 0 105.36 0 105.36-27.54ZM133.73-27.83L133.73-27.83Q135.39-27.83 136.86-27.17 138.32-26.51 139.42-25.29 140.52-24.07 141.13-22.39 141.74-20.7 141.74-18.75L141.74-18.75 141.74 0 135.88 0 135.88-14.99Q135.88-16.65 135.86-18.14 135.83-19.63 135.54-20.8 135.25-21.97 134.59-22.63 133.93-23.29 132.56-23.29L132.56-23.29Q132.22-23.29 131.1-23.14 129.97-23 128.51-22.31L128.51-22.31 128.51-26.17Q129.83-26.95 131.19-27.39 132.56-27.83 133.73-27.83ZM125.29-24.07L125.29-24.07Q125.87-23.19 126.14-22.19 126.41-21.19 126.48-20.12 126.56-19.04 126.53-17.9 126.51-16.75 126.51-15.48L126.51-15.48 126.51 0 120.6 0 120.6-14.99Q120.6-16.65 120.6-18.14 120.6-19.63 120.31-20.8 120.01-21.97 119.33-22.63 118.64-23.29 117.33-23.29L117.33-23.29Q116.74-23.29 115.59-23.07 114.45-22.85 113.32-22.31L113.32-22.31 113.32-26.17Q114.49-26.86 115.84-27.29 117.18-27.73 118.5-27.73L118.5-27.73Q120.74-27.73 122.28-26.81 123.82-25.88 125.29-24.07Z" fill="black"></path><path d="M176.16-30.42L176.16-30.42Q175.92-30.52 175.58-30.76 175.23-31.01 174.6-31.23 173.96-31.45 172.99-31.59 172.01-31.74 170.5-31.64L170.5-31.64 170.5-36.57Q172.65-36.52 174.87-36.11 177.09-35.69 178.46-34.81L178.46-34.81Q178.16-34.18 177.77-33.42 177.38-32.67 177.04-32.01 176.7-31.35 176.45-30.91 176.21-30.47 176.16-30.42ZM159.32-26.51L159.32-26.51Q159.32-28.66 160.05-30.37 160.78-32.08 162.03-33.37 163.27-34.67 164.96-35.42 166.64-36.18 168.5-36.43L168.5-36.43 168.5-31.3Q166.93-30.76 165.91-29.42 164.88-28.08 164.88-26.71L164.88-26.71Q164.88-24.8 165.91-23.63 166.93-22.46 168.5-21.58L168.5-21.58 168.5-16.02Q166.88-16.8 165.27-17.7 163.66-18.6 162.34-19.82 161.02-21.04 160.17-22.66 159.32-24.27 159.32-26.51ZM159.07-2.39L160.1-6.59Q160.78-6.2 161.83-5.83 162.88-5.47 164-5.15 165.13-4.83 166.25-4.64 167.37-4.44 168.35-4.44L168.35-4.44 168.5-4.44 168.5 0.2 168.4 0.2Q167.23 0.2 165.98 0.07 164.74-0.05 163.47-0.34 162.2-0.63 161.05-1.15 159.9-1.66 159.07-2.39L159.07-2.39ZM170.5-14.89L170.5-20.61Q172.11-19.87 173.79-19.04 175.48-18.21 176.84-17.02 178.21-15.82 179.09-14.11 179.97-12.4 179.97-9.86L179.97-9.86Q179.97-8.11 179.31-6.45 178.65-4.79 177.46-3.44 176.26-2.1 174.5-1.17 172.74-0.24 170.5 0.05L170.5 0.05 170.5-4.64Q174.5-5.62 174.5-9.96L174.5-9.96Q174.5-11.67 173.38-12.79 172.26-13.92 170.5-14.89L170.5-14.89ZM207.21-27.54L197.55-13.82 208.48 0 201.74 0 193.74-10.55 193.74-17.33 200.57-27.54 207.21-27.54ZM191.74 0L185.78 0 185.78-37.94 191.74-37.94 191.74 0ZM227.28-23.19L227.28-27.78Q229.92-27.54 232.04-26.37 234.16-25.2 235.68-23.34 237.19-21.48 238-19.09 238.8-16.7 238.8-14.11L238.8-14.11Q238.8-12.94 238.66-11.77L238.66-11.77 221.91-11.77 221.91-16.06 233.19-16.06Q233.19-17.33 232.77-18.51 232.36-19.68 231.55-20.68 230.75-21.68 229.67-22.36 228.6-23.05 227.28-23.19L227.28-23.19ZM227.08-4.59L227.08-4.59Q227.62-4.59 228.43-4.71 229.23-4.83 230.14-5.15 231.04-5.47 231.94-5.96 232.85-6.45 233.53-7.13L233.53-7.13 235.68-3.86Q234.07-1.86 231.92-0.83 229.77 0.2 226.45 0.2L226.45 0.2Q223.76 0.2 221.42-0.9 219.08-2 217.42-3.91 215.76-5.81 214.78-8.35 213.8-10.89 213.8-13.82L213.8-13.82Q213.8-16.6 214.71-19.09 215.61-21.58 217.17-23.46 218.73-25.34 220.81-26.51 222.88-27.69 225.28-27.83L225.28-27.83 225.28-23.14Q223.47-22.8 222.3-21.68 221.13-20.56 220.47-19.12 219.81-17.68 219.54-16.16 219.27-14.65 219.27-13.57L219.27-13.57Q219.27-11.67 219.74-10.03 220.2-8.4 221.18-7.2 222.15-6.01 223.59-5.3 225.03-4.59 227.08-4.59ZM252.77-37.94L252.77-8.4Q252.77-6.74 253.2-5.79 253.64-4.83 254.43-4.37 255.21-3.91 256.21-3.76 257.21-3.61 258.38-3.61L258.38-3.61 258.38 0Q257.75 0.1 257.06 0.15L257.06 0.15Q256.52 0.2 255.79 0.22 255.06 0.24 254.33 0.24L254.33 0.24Q253.6 0.24 252.86 0.2 252.13 0.15 251.54 0.05L251.54 0.05Q249.88-0.29 248.96-1.42 248.03-2.54 247.54-3.93 247.05-5.32 246.93-6.64 246.81-7.96 246.81-8.69L246.81-8.69 246.81-9.28 246.81-37.94 252.77-37.94ZM277.42-23.19L277.42-27.78Q280.06-27.54 282.18-26.37 284.31-25.2 285.82-23.34 287.33-21.48 288.14-19.09 288.94-16.7 288.94-14.11L288.94-14.11Q288.94-12.94 288.8-11.77L288.8-11.77 272.05-11.77 272.05-16.06 283.33-16.06Q283.33-17.33 282.91-18.51 282.5-19.68 281.69-20.68 280.89-21.68 279.81-22.36 278.74-23.05 277.42-23.19L277.42-23.19ZM277.23-4.59L277.23-4.59Q277.76-4.59 278.57-4.71 279.37-4.83 280.28-5.15 281.18-5.47 282.08-5.96 282.99-6.45 283.67-7.13L283.67-7.13 285.82-3.86Q284.21-1.86 282.06-0.83 279.91 0.2 276.59 0.2L276.59 0.2Q273.91 0.2 271.56-0.9 269.22-2 267.56-3.91 265.9-5.81 264.92-8.35 263.94-10.89 263.94-13.82L263.94-13.82Q263.94-16.6 264.85-19.09 265.75-21.58 267.31-23.46 268.88-25.34 270.95-26.51 273.03-27.69 275.42-27.83L275.42-27.83 275.42-23.14Q273.61-22.8 272.44-21.68 271.27-20.56 270.61-19.12 269.95-17.68 269.68-16.16 269.41-14.65 269.41-13.57L269.41-13.57Q269.41-11.67 269.88-10.03 270.34-8.4 271.32-7.2 272.29-6.01 273.73-5.3 275.17-4.59 277.23-4.59ZM304.91-23.54L304.91-8.35Q304.91-6.69 305.35-5.76 305.79-4.83 306.59-4.35 307.4-3.86 308.4-3.74 309.4-3.61 310.52-3.61L310.52-3.61 310.52 0Q309.89 0.1 309.25 0.15L309.25 0.15Q308.72 0.2 307.96 0.22 307.2 0.24 306.47 0.24L306.47 0.24Q305.74 0.24 304.98 0.2 304.23 0.15 303.69 0.05L303.69 0.05Q302.03-0.24 301.1-1.39 300.17-2.54 299.71-3.93 299.24-5.32 299.12-6.64 299-7.96 299-8.69L299-8.69 299-23.54 295.39-23.54 295.39-27.54 299-27.54 299-35.35 304.91-35.35 304.91-27.54 309.3-27.54 309.3-23.54 304.91-23.54ZM330.39-23.1L330.39-27.69Q333.08-27.54 335.28-26.39 337.47-25.24 338.96-23.36 340.45-21.48 341.28-18.99 342.11-16.5 342.11-13.67L342.11-13.67Q342.11-10.84 341.26-8.37 340.4-5.91 338.89-4.08 337.38-2.25 335.18-1.12 332.98 0 330.39 0.2L330.39 0.2 330.39-4.49Q332.84-5.03 334.37-7.57 335.91-10.11 335.91-13.67L335.91-13.67Q335.91-15.48 335.55-17.07 335.18-18.65 334.45-19.92 333.71-21.19 332.69-22.02 331.66-22.85 330.39-23.1L330.39-23.1ZM316.77-13.77L316.77-13.77Q316.77-16.6 317.6-19.04 318.43-21.48 319.97-23.32 321.51-25.15 323.66-26.27 325.8-27.39 328.39-27.64L328.39-27.64 328.39-23.1Q325.95-22.56 324.49-20.02 323.02-17.48 323.02-13.92L323.02-13.92Q323.02-12.11 323.39-10.5 323.75-8.89 324.44-7.62 325.12-6.35 326.12-5.52 327.12-4.69 328.39-4.49L328.39-4.49 328.39 0.2Q325.71 0 323.56-1.15 321.41-2.29 319.9-4.15 318.38-6.01 317.58-8.5 316.77-10.99 316.77-13.77ZM349.78-27.54L355.05-27.54 355.68-24.76 355.68 0 349.78 0 349.78-27.54ZM370.28-24.51L370.28-24.51Q371.11-23.68 371.58-22.58 372.04-21.48 372.26-20.29 372.48-19.09 372.53-17.87 372.58-16.65 372.58-15.48L372.58-15.48 372.58-0.98 372.58 0 366.62 0 366.62-14.99Q366.62-16.65 366.48-18.16 366.33-19.68 365.79-20.85 365.26-22.02 364.33-22.68 363.4-23.34 361.74-23.34L361.74-23.34Q361.06-23.34 359.91-23.12 358.76-22.9 357.69-22.41L357.69-22.41 357.69-26.17Q359.01-26.86 360.54-27.34 362.08-27.83 363.55-27.83L363.55-27.83Q365.74-27.83 367.26-26.93 368.77-26.03 370.28-24.51Z" fill="black"></path></g></svg></g></svg></g></svg></g></svg></g><g transform="matrix(1,0,0,1,148.56408471194723,0)"><svg viewBox="0 0 98.39183057610552 98.39183057610552" height="98.39183057610552" width="98.39183057610552"><g><svg></svg></g><g id="SvgjsG2415"><svg viewBox="0 0 98.39183057610552 98.39183057610552" height="98.39183057610552" width="98.39183057610552"><g><path d="M0 49.196c0-27.17 22.026-49.196 49.196-49.196 27.17 0 49.196 22.026 49.196 49.196 0 27.17-22.026 49.196-49.196 49.196-27.17 0-49.196-22.026-49.196-49.196zM49.196 94.748c25.158 0 45.552-20.394 45.552-45.552 0-25.158-20.394-45.552-45.552-45.552-25.158 0-45.552 20.394-45.552 45.552 0 25.158 20.394 45.552 45.552 45.552z" fill="black" stroke="transparent"></path></g><g transform="matrix(1,0,0,1,20.72632965917556,37.91997699924146)"><svg viewBox="0 0 56.9391712577544 22.55187657762259" height="22.55187657762259" width="56.9391712577544"><g><svg xmlns="http://www.w3.org/2000/svg" xmlns:xlink="http://www.w3.org/1999/xlink" version="1.1" x="0" y="0" viewBox="0.52 29.195999999999998 94.95300070888244 37.60799999999999" enable-background="new 0 0 96 96" xml:space="preserve" height="22.55187657762259" width="56.9391712577544" class="icon-cg-0" data-fill-palette-color="accent" id="SvgjsSvg2414"><path d="M68.729 31.448c-0.908 0-1.756 0.072-2.557 0.216-0.951 0.168-1.648 1-1.648 1.964v13.568h-4v-12c0-1.104-0.899-2-2-2-1.104 0-2 0.896-2 2v12h-4v-16c0-1.104-0.899-2-2-2-1.104 0-2 0.896-2 2v16h-4v-16c0-1.104-0.896-2-2-2s-2 0.896-2 2v16h-4v-12c0-1.104-0.896-2-2-2s-2 0.896-2 2v12h-4v-8c0-1.104-0.896-2-2-2s-2 0.896-2 2v8h-4v-4c0-1.104-0.896-2-2-2s-2 0.896-2 2v3.568L3.72 37.204c-0.616-0.456-1.424-0.524-2.096-0.184-0.676 0.336-1.104 1.032-1.104 1.784v20.78c0 0.752 0.428 1.448 1.104 1.788 0.284 0.144 0.588 0.212 0.896 0.212 0.42 0 0.844-0.136 1.196-0.4L16.52 51.62v3.571c0 1.101 0.896 2 2 2s2-0.899 2-2v-4h4v8c0 1.101 0.896 2 2 2s2-0.899 2-2v-8h4v12c0 1.101 0.896 2 2 2s2-0.899 2-2v-12h4v12c0 1.101 0.896 2 2 2s2-0.899 2-2v-12h4v12c0 1.101 0.896 2 2 2 1.101 0 2-0.899 2-2v-12h4v8c0 1.101 0.896 2 2 2 1.101 0 2-0.899 2-2v-8h4v13.564c0 1.053 0.813 1.92 1.869 1.996 0.531 0.036 1.075 0.053 1.623 0.053 11.992 0 27.461-8.541 27.461-17.609C95.477 40.22 78.552 31.448 68.729 31.448z" fill="black"></path></svg></g></svg></g></svg></g></svg></g><g></g></svg></g><defs><mask></mask></defs></svg><rect width="395.52" height="157.88120438970364" fill="black" stroke="none" visibility="hidden"></rect></g></mask><mask><g id="SvgjsG2413"><svg viewBox="0 0 395.52 157.88120438970364" height="157.88120438970364" width="395.52"><g><svg viewBox="0 0 395.52 157.88120438970364" height="157.88120438970364" width="395.52"><g transform="matrix(1,0,0,1,0,117.47140036566392)"><svg viewBox="0 0 395.52 40.409804024039715" height="40.409804024039715" width="395.52"><g id="SvgjsG2412"><svg viewBox="0 0 395.52 40.409804024039715" height="40.409804024039715" width="395.52" id="SvgjsSvg2411"><g><svg viewBox="0 0 395.52 40.409804024039715" height="40.409804024039715" width="395.52"><g transform="matrix(1,0,0,1,0,0)"><svg width="395.52" viewBox="3.08 -37.94 369.50000000000006 38.18" height="40.409804024039715" data-palette-color="url(#30e4ef0c-51ff-488f-b4d9-f36f31628567)"><g class="wordmark-text-0" data-fill-palette-color="primary" id="SvgjsG2410"><path d="M176.16-30.42L176.16-30.42Q175.92-30.52 175.58-30.76 175.23-31.01 174.6-31.23 173.96-31.45 172.99-31.59 172.01-31.74 170.5-31.64L170.5-31.64 170.5-36.57Q172.65-36.52 174.87-36.11 177.09-35.69 178.46-34.81L178.46-34.81Q178.16-34.18 177.77-33.42 177.38-32.67 177.04-32.01 176.7-31.35 176.45-30.91 176.21-30.47 176.16-30.42ZM159.32-26.51L159.32-26.51Q159.32-28.66 160.05-30.37 160.78-32.08 162.03-33.37 163.27-34.67 164.96-35.42 166.64-36.18 168.5-36.43L168.5-36.43 168.5-31.3Q166.93-30.76 165.91-29.42 164.88-28.08 164.88-26.71L164.88-26.71Q164.88-24.8 165.91-23.63 166.93-22.46 168.5-21.58L168.5-21.58 168.5-16.02Q166.88-16.8 165.27-17.7 163.66-18.6 162.34-19.82 161.02-21.04 160.17-22.66 159.32-24.27 159.32-26.51ZM159.07-2.39L160.1-6.59Q160.78-6.2 161.83-5.83 162.88-5.47 164-5.15 165.13-4.83 166.25-4.64 167.37-4.44 168.35-4.44L168.35-4.44 168.5-4.44 168.5 0.2 168.4 0.2Q167.23 0.2 165.98 0.07 164.74-0.05 163.47-0.34 162.2-0.63 161.05-1.15 159.9-1.66 159.07-2.39L159.07-2.39ZM170.5-14.89L170.5-20.61Q172.11-19.87 173.79-19.04 175.48-18.21 176.84-17.02 178.21-15.82 179.09-14.11 179.97-12.4 179.97-9.86L179.97-9.86Q179.97-8.11 179.31-6.45 178.65-4.79 177.46-3.44 176.26-2.1 174.5-1.17 172.74-0.24 170.5 0.05L170.5 0.05 170.5-4.64Q174.5-5.62 174.5-9.96L174.5-9.96Q174.5-11.67 173.38-12.79 172.26-13.92 170.5-14.89L170.5-14.89ZM207.21-27.54L197.55-13.82 208.48 0 201.74 0 193.74-10.55 193.74-17.33 200.57-27.54 207.21-27.54ZM191.74 0L185.78 0 185.78-37.94 191.74-37.94 191.74 0ZM227.28-23.19L227.28-27.78Q229.92-27.54 232.04-26.37 234.16-25.2 235.68-23.34 237.19-21.48 238-19.09 238.8-16.7 238.8-14.11L238.8-14.11Q238.8-12.94 238.66-11.77L238.66-11.77 221.91-11.77 221.91-16.06 233.19-16.06Q233.19-17.33 232.77-18.51 232.36-19.68 231.55-20.68 230.75-21.68 229.67-22.36 228.6-23.05 227.28-23.19L227.28-23.19ZM227.08-4.59L227.08-4.59Q227.62-4.59 228.43-4.71 229.23-4.83 230.14-5.15 231.04-5.47 231.94-5.96 232.85-6.45 233.53-7.13L233.53-7.13 235.68-3.86Q234.07-1.86 231.92-0.83 229.77 0.2 226.45 0.2L226.45 0.2Q223.76 0.2 221.42-0.9 219.08-2 217.42-3.91 215.76-5.81 214.78-8.35 213.8-10.89 213.8-13.82L213.8-13.82Q213.8-16.6 214.71-19.09 215.61-21.58 217.17-23.46 218.73-25.34 220.81-26.51 222.88-27.69 225.28-27.83L225.28-27.83 225.28-23.14Q223.47-22.8 222.3-21.68 221.13-20.56 220.47-19.12 219.81-17.68 219.54-16.16 219.27-14.65 219.27-13.57L219.27-13.57Q219.27-11.67 219.74-10.03 220.2-8.4 221.18-7.2 222.15-6.01 223.59-5.3 225.03-4.59 227.08-4.59ZM252.77-37.94L252.77-8.4Q252.77-6.74 253.2-5.79 253.64-4.83 254.43-4.37 255.21-3.91 256.21-3.76 257.21-3.61 258.38-3.61L258.38-3.61 258.38 0Q257.75 0.1 257.06 0.15L257.06 0.15Q256.52 0.2 255.79 0.22 255.06 0.24 254.33 0.24L254.33 0.24Q253.6 0.24 252.86 0.2 252.13 0.15 251.54 0.05L251.54 0.05Q249.88-0.29 248.96-1.42 248.03-2.54 247.54-3.93 247.05-5.32 246.93-6.64 246.81-7.96 246.81-8.69L246.81-8.69 246.81-9.28 246.81-37.94 252.77-37.94ZM277.42-23.19L277.42-27.78Q280.06-27.54 282.18-26.37 284.31-25.2 285.82-23.34 287.33-21.48 288.14-19.09 288.94-16.7 288.94-14.11L288.94-14.11Q288.94-12.94 288.8-11.77L288.8-11.77 272.05-11.77 272.05-16.06 283.33-16.06Q283.33-17.33 282.91-18.51 282.5-19.68 281.69-20.68 280.89-21.68 279.81-22.36 278.74-23.05 277.42-23.19L277.42-23.19ZM277.23-4.59L277.23-4.59Q277.76-4.59 278.57-4.71 279.37-4.83 280.28-5.15 281.18-5.47 282.08-5.96 282.99-6.45 283.67-7.13L283.67-7.13 285.82-3.86Q284.21-1.86 282.06-0.83 279.91 0.2 276.59 0.2L276.59 0.2Q273.91 0.2 271.56-0.9 269.22-2 267.56-3.91 265.9-5.81 264.92-8.35 263.94-10.89 263.94-13.82L263.94-13.82Q263.94-16.6 264.85-19.09 265.75-21.58 267.31-23.46 268.88-25.34 270.95-26.51 273.03-27.69 275.42-27.83L275.42-27.83 275.42-23.14Q273.61-22.8 272.44-21.68 271.27-20.56 270.61-19.12 269.95-17.68 269.68-16.16 269.41-14.65 269.41-13.57L269.41-13.57Q269.41-11.67 269.88-10.03 270.34-8.4 271.32-7.2 272.29-6.01 273.73-5.3 275.17-4.59 277.23-4.59ZM304.91-23.54L304.91-8.35Q304.91-6.69 305.35-5.76 305.79-4.83 306.59-4.35 307.4-3.86 308.4-3.74 309.4-3.61 310.52-3.61L310.52-3.61 310.52 0Q309.89 0.1 309.25 0.15L309.25 0.15Q308.72 0.2 307.96 0.22 307.2 0.24 306.47 0.24L306.47 0.24Q305.74 0.24 304.98 0.2 304.23 0.15 303.69 0.05L303.69 0.05Q302.03-0.24 301.1-1.39 300.17-2.54 299.71-3.93 299.24-5.32 299.12-6.64 299-7.96 299-8.69L299-8.69 299-23.54 295.39-23.54 295.39-27.54 299-27.54 299-35.35 304.91-35.35 304.91-27.54 309.3-27.54 309.3-23.54 304.91-23.54ZM330.39-23.1L330.39-27.69Q333.08-27.54 335.28-26.39 337.47-25.24 338.96-23.36 340.45-21.48 341.28-18.99 342.11-16.5 342.11-13.67L342.11-13.67Q342.11-10.84 341.26-8.37 340.4-5.91 338.89-4.08 337.38-2.25 335.18-1.12 332.98 0 330.39 0.2L330.39 0.2 330.39-4.49Q332.84-5.03 334.37-7.57 335.91-10.11 335.91-13.67L335.91-13.67Q335.91-15.48 335.55-17.07 335.18-18.65 334.45-19.92 333.71-21.19 332.69-22.02 331.66-22.85 330.39-23.1L330.39-23.1ZM316.77-13.77L316.77-13.77Q316.77-16.6 317.6-19.04 318.43-21.48 319.97-23.32 321.51-25.15 323.66-26.27 325.8-27.39 328.39-27.64L328.39-27.64 328.39-23.1Q325.95-22.56 324.49-20.02 323.02-17.48 323.02-13.92L323.02-13.92Q323.02-12.11 323.39-10.5 323.75-8.89 324.44-7.62 325.12-6.35 326.12-5.52 327.12-4.69 328.39-4.49L328.39-4.49 328.39 0.2Q325.71 0 323.56-1.15 321.41-2.29 319.9-4.15 318.38-6.01 317.58-8.5 316.77-10.99 316.77-13.77ZM349.78-27.54L355.05-27.54 355.68-24.76 355.68 0 349.78 0 349.78-27.54ZM370.28-24.51L370.28-24.51Q371.11-23.68 371.58-22.58 372.04-21.48 372.26-20.29 372.48-19.09 372.53-17.87 372.58-16.65 372.58-15.48L372.58-15.48 372.58-0.98 372.58 0 366.62 0 366.62-14.99Q366.62-16.65 366.48-18.16 366.33-19.68 365.79-20.85 365.26-22.02 364.33-22.68 363.4-23.34 361.74-23.34L361.74-23.34Q361.06-23.34 359.91-23.12 358.76-22.9 357.69-22.41L357.69-22.41 357.69-26.17Q359.01-26.86 360.54-27.34 362.08-27.83 363.55-27.83L363.55-27.83Q365.74-27.83 367.26-26.93 368.77-26.03 370.28-24.51Z" fill="black"></path></g></svg></g></svg></g></svg></g></svg></g><g transform="matrix(1,0,0,1,148.56408471194723,0)"><svg viewBox="0 0 98.39183057610552 98.39183057610552" height="98.39183057610552" width="98.39183057610552"><g><svg></svg></g><g id="SvgjsG2409"><svg viewBox="0 0 98.39183057610552 98.39183057610552" height="98.39183057610552" width="98.39183057610552"><g><path d="M0 49.196c0-27.17 22.026-49.196 49.196-49.196 27.17 0 49.196 22.026 49.196 49.196 0 27.17-22.026 49.196-49.196 49.196-27.17 0-49.196-22.026-49.196-49.196zM49.196 94.748c25.158 0 45.552-20.394 45.552-45.552 0-25.158-20.394-45.552-45.552-45.552-25.158 0-45.552 20.394-45.552 45.552 0 25.158 20.394 45.552 45.552 45.552z" fill="black" stroke="transparent"></path></g><g transform="matrix(1,0,0,1,20.72632965917556,37.91997699924146)"><svg viewBox="0 0 56.9391712577544 22.55187657762259" height="22.55187657762259" width="56.9391712577544"><g><svg xmlns="http://www.w3.org/2000/svg" xmlns:xlink="http://www.w3.org/1999/xlink" version="1.1" x="0" y="0" viewBox="0.52 29.195999999999998 94.95300070888244 37.60799999999999" enable-background="new 0 0 96 96" xml:space="preserve" height="22.55187657762259" width="56.9391712577544" class="icon-cg-0" data-fill-palette-color="accent" id="SvgjsSvg2408"><path d="M68.729 31.448c-0.908 0-1.756 0.072-2.557 0.216-0.951 0.168-1.648 1-1.648 1.964v13.568h-4v-12c0-1.104-0.899-2-2-2-1.104 0-2 0.896-2 2v12h-4v-16c0-1.104-0.899-2-2-2-1.104 0-2 0.896-2 2v16h-4v-16c0-1.104-0.896-2-2-2s-2 0.896-2 2v16h-4v-12c0-1.104-0.896-2-2-2s-2 0.896-2 2v12h-4v-8c0-1.104-0.896-2-2-2s-2 0.896-2 2v8h-4v-4c0-1.104-0.896-2-2-2s-2 0.896-2 2v3.568L3.72 37.204c-0.616-0.456-1.424-0.524-2.096-0.184-0.676 0.336-1.104 1.032-1.104 1.784v20.78c0 0.752 0.428 1.448 1.104 1.788 0.284 0.144 0.588 0.212 0.896 0.212 0.42 0 0.844-0.136 1.196-0.4L16.52 51.62v3.571c0 1.101 0.896 2 2 2s2-0.899 2-2v-4h4v8c0 1.101 0.896 2 2 2s2-0.899 2-2v-8h4v12c0 1.101 0.896 2 2 2s2-0.899 2-2v-12h4v12c0 1.101 0.896 2 2 2s2-0.899 2-2v-12h4v12c0 1.101 0.896 2 2 2 1.101 0 2-0.899 2-2v-12h4v8c0 1.101 0.896 2 2 2 1.101 0 2-0.899 2-2v-8h4v13.564c0 1.053 0.813 1.92 1.869 1.996 0.531 0.036 1.075 0.053 1.623 0.053 11.992 0 27.461-8.541 27.461-17.609C95.477 40.22 78.552 31.448 68.729 31.448z" fill="black"></path></svg></g></svg></g></svg></g></svg></g><g></g></svg></g><defs><mask></mask></defs><mask><g id="SvgjsG2407"><svg viewBox="0 0 395.52 157.88120438970364" height="157.88120438970364" width="395.52"><g><svg viewBox="0 0 395.52 157.88120438970364" height="157.88120438970364" width="395.52"><g transform="matrix(1,0,0,1,0,117.47140036566392)"><svg viewBox="0 0 395.52 40.409804024039715" height="40.409804024039715" width="395.52"><g id="SvgjsG2406"><svg viewBox="0 0 395.52 40.409804024039715" height="40.409804024039715" width="395.52" id="SvgjsSvg2405"><g><svg viewBox="0 0 395.52 40.409804024039715" height="40.409804024039715" width="395.52"><g transform="matrix(1,0,0,1,0,0)"><svg width="395.52" viewBox="3.08 -37.94 369.50000000000006 38.18" height="40.409804024039715" data-palette-color="url(#30e4ef0c-51ff-488f-b4d9-f36f31628567)"><g class="wordmark-text-0" data-fill-palette-color="primary" id="SvgjsG2404"><path d="M21.48-35.94L33.98 0 27.93 0 18.6-26.95 9.18 0 3.08 0 15.67-35.94 21.48-35.94ZM15.28-11.43L21.83-11.43 23.24-7.47 13.92-7.47 15.28-11.43ZM49.85-13.82L40.82-27.54 47.51-27.54 52.63-18.51 52.63-8.25 47.65 0 40.87 0 49.85-13.82ZM59.86-27.54L66.55-27.54 57.52-13.82 66.5 0 59.71 0 54.64-8.89 54.64-19.29 59.86-27.54ZM80.22-27.54L80.22-12.55Q80.22-10.84 80.37-9.35 80.51-7.86 81-6.74 81.49-5.62 82.47-4.93 83.44-4.25 85.05-4.25L85.05-4.25Q85.69-4.25 86.86-4.44 88.03-4.64 89.11-5.08L89.11-5.08 89.11-1.46Q87.84-0.78 86.35-0.27 84.86 0.24 83.39 0.24L83.39 0.24Q82.22 0.24 81.29 0.02 80.37-0.2 79.56-0.66 78.75-1.12 78.02-1.71 77.29-2.29 76.56-3.03L76.56-3.03Q75.73-3.86 75.24-4.96 74.75-6.05 74.53-7.25 74.31-8.45 74.29-9.67 74.26-10.89 74.26-12.06L74.26-12.06 74.26-27.54 80.22-27.54ZM91.11-27.54L97.07-27.54 97.07 0 91.74 0 91.11-2.83 91.11-27.54ZM105.36-27.54L110.69-27.54 111.32-24.71 111.32 0 105.36 0 105.36-27.54ZM133.73-27.83L133.73-27.83Q135.39-27.83 136.86-27.17 138.32-26.51 139.42-25.29 140.52-24.07 141.13-22.39 141.74-20.7 141.74-18.75L141.74-18.75 141.74 0 135.88 0 135.88-14.99Q135.88-16.65 135.86-18.14 135.83-19.63 135.54-20.8 135.25-21.97 134.59-22.63 133.93-23.29 132.56-23.29L132.56-23.29Q132.22-23.29 131.1-23.14 129.97-23 128.51-22.31L128.51-22.31 128.51-26.17Q129.83-26.95 131.19-27.39 132.56-27.83 133.73-27.83ZM125.29-24.07L125.29-24.07Q125.87-23.19 126.14-22.19 126.41-21.19 126.48-20.12 126.56-19.04 126.53-17.9 126.51-16.75 126.51-15.48L126.51-15.48 126.51 0 120.6 0 120.6-14.99Q120.6-16.65 120.6-18.14 120.6-19.63 120.31-20.8 120.01-21.97 119.33-22.63 118.64-23.29 117.33-23.29L117.33-23.29Q116.74-23.29 115.59-23.07 114.45-22.85 113.32-22.31L113.32-22.31 113.32-26.17Q114.49-26.86 115.84-27.29 117.18-27.73 118.5-27.73L118.5-27.73Q120.74-27.73 122.28-26.81 123.82-25.88 125.29-24.07Z" fill="black"></path><path d="M176.16-30.42L176.16-30.42Q175.92-30.52 175.58-30.76 175.23-31.01 174.6-31.23 173.96-31.45 172.99-31.59 172.01-31.74 170.5-31.64L170.5-31.64 170.5-36.57Q172.65-36.52 174.87-36.11 177.09-35.69 178.46-34.81L178.46-34.81Q178.16-34.18 177.77-33.42 177.38-32.67 177.04-32.01 176.7-31.35 176.45-30.91 176.21-30.47 176.16-30.42ZM159.32-26.51L159.32-26.51Q159.32-28.66 160.05-30.37 160.78-32.08 162.03-33.37 163.27-34.67 164.96-35.42 166.64-36.18 168.5-36.43L168.5-36.43 168.5-31.3Q166.93-30.76 165.91-29.42 164.88-28.08 164.88-26.71L164.88-26.71Q164.88-24.8 165.91-23.63 166.93-22.46 168.5-21.58L168.5-21.58 168.5-16.02Q166.88-16.8 165.27-17.7 163.66-18.6 162.34-19.82 161.02-21.04 160.17-22.66 159.32-24.27 159.32-26.51ZM159.07-2.39L160.1-6.59Q160.78-6.2 161.83-5.83 162.88-5.47 164-5.15 165.13-4.83 166.25-4.64 167.37-4.44 168.35-4.44L168.35-4.44 168.5-4.44 168.5 0.2 168.4 0.2Q167.23 0.2 165.98 0.07 164.74-0.05 163.47-0.34 162.2-0.63 161.05-1.15 159.9-1.66 159.07-2.39L159.07-2.39ZM170.5-14.89L170.5-20.61Q172.11-19.87 173.79-19.04 175.48-18.21 176.84-17.02 178.21-15.82 179.09-14.11 179.97-12.4 179.97-9.86L179.97-9.86Q179.97-8.11 179.31-6.45 178.65-4.79 177.46-3.44 176.26-2.1 174.5-1.17 172.74-0.24 170.5 0.05L170.5 0.05 170.5-4.64Q174.5-5.62 174.5-9.96L174.5-9.96Q174.5-11.67 173.38-12.79 172.26-13.92 170.5-14.89L170.5-14.89ZM207.21-27.54L197.55-13.82 208.48 0 201.74 0 193.74-10.55 193.74-17.33 200.57-27.54 207.21-27.54ZM191.74 0L185.78 0 185.78-37.94 191.74-37.94 191.74 0ZM227.28-23.19L227.28-27.78Q229.92-27.54 232.04-26.37 234.16-25.2 235.68-23.34 237.19-21.48 238-19.09 238.8-16.7 238.8-14.11L238.8-14.11Q238.8-12.94 238.66-11.77L238.66-11.77 221.91-11.77 221.91-16.06 233.19-16.06Q233.19-17.33 232.77-18.51 232.36-19.68 231.55-20.68 230.75-21.68 229.67-22.36 228.6-23.05 227.28-23.19L227.28-23.19ZM227.08-4.59L227.08-4.59Q227.62-4.59 228.43-4.71 229.23-4.83 230.14-5.15 231.04-5.47 231.94-5.96 232.85-6.45 233.53-7.13L233.53-7.13 235.68-3.86Q234.07-1.86 231.92-0.83 229.77 0.2 226.45 0.2L226.45 0.2Q223.76 0.2 221.42-0.9 219.08-2 217.42-3.91 215.76-5.81 214.78-8.35 213.8-10.89 213.8-13.82L213.8-13.82Q213.8-16.6 214.71-19.09 215.61-21.58 217.17-23.46 218.73-25.34 220.81-26.51 222.88-27.69 225.28-27.83L225.28-27.83 225.28-23.14Q223.47-22.8 222.3-21.68 221.13-20.56 220.47-19.12 219.81-17.68 219.54-16.16 219.27-14.65 219.27-13.57L219.27-13.57Q219.27-11.67 219.74-10.03 220.2-8.4 221.18-7.2 222.15-6.01 223.59-5.3 225.03-4.59 227.08-4.59ZM252.77-37.94L252.77-8.4Q252.77-6.74 253.2-5.79 253.64-4.83 254.43-4.37 255.21-3.91 256.21-3.76 257.21-3.61 258.38-3.61L258.38-3.61 258.38 0Q257.75 0.1 257.06 0.15L257.06 0.15Q256.52 0.2 255.79 0.22 255.06 0.24 254.33 0.24L254.33 0.24Q253.6 0.24 252.86 0.2 252.13 0.15 251.54 0.05L251.54 0.05Q249.88-0.29 248.96-1.42 248.03-2.54 247.54-3.93 247.05-5.32 246.93-6.64 246.81-7.96 246.81-8.69L246.81-8.69 246.81-9.28 246.81-37.94 252.77-37.94ZM277.42-23.19L277.42-27.78Q280.06-27.54 282.18-26.37 284.31-25.2 285.82-23.34 287.33-21.48 288.14-19.09 288.94-16.7 288.94-14.11L288.94-14.11Q288.94-12.94 288.8-11.77L288.8-11.77 272.05-11.77 272.05-16.06 283.33-16.06Q283.33-17.33 282.91-18.51 282.5-19.68 281.69-20.68 280.89-21.68 279.81-22.36 278.74-23.05 277.42-23.19L277.42-23.19ZM277.23-4.59L277.23-4.59Q277.76-4.59 278.57-4.71 279.37-4.83 280.28-5.15 281.18-5.47 282.08-5.96 282.99-6.45 283.67-7.13L283.67-7.13 285.82-3.86Q284.21-1.86 282.06-0.83 279.91 0.2 276.59 0.2L276.59 0.2Q273.91 0.2 271.56-0.9 269.22-2 267.56-3.91 265.9-5.81 264.92-8.35 263.94-10.89 263.94-13.82L263.94-13.82Q263.94-16.6 264.85-19.09 265.75-21.58 267.31-23.46 268.88-25.34 270.95-26.51 273.03-27.69 275.42-27.83L275.42-27.83 275.42-23.14Q273.61-22.8 272.44-21.68 271.27-20.56 270.61-19.12 269.95-17.68 269.68-16.16 269.41-14.65 269.41-13.57L269.41-13.57Q269.41-11.67 269.88-10.03 270.34-8.4 271.32-7.2 272.29-6.01 273.73-5.3 275.17-4.59 277.23-4.59ZM304.91-23.54L304.91-8.35Q304.91-6.69 305.35-5.76 305.79-4.83 306.59-4.35 307.4-3.86 308.4-3.74 309.4-3.61 310.52-3.61L310.52-3.61 310.52 0Q309.89 0.1 309.25 0.15L309.25 0.15Q308.72 0.2 307.96 0.22 307.2 0.24 306.47 0.24L306.47 0.24Q305.74 0.24 304.98 0.2 304.23 0.15 303.69 0.05L303.69 0.05Q302.03-0.24 301.1-1.39 300.17-2.54 299.71-3.93 299.24-5.32 299.12-6.64 299-7.96 299-8.69L299-8.69 299-23.54 295.39-23.54 295.39-27.54 299-27.54 299-35.35 304.91-35.35 304.91-27.54 309.3-27.54 309.3-23.54 304.91-23.54ZM330.39-23.1L330.39-27.69Q333.08-27.54 335.28-26.39 337.47-25.24 338.96-23.36 340.45-21.48 341.28-18.99 342.11-16.5 342.11-13.67L342.11-13.67Q342.11-10.84 341.26-8.37 340.4-5.91 338.89-4.08 337.38-2.25 335.18-1.12 332.98 0 330.39 0.2L330.39 0.2 330.39-4.49Q332.84-5.03 334.37-7.57 335.91-10.11 335.91-13.67L335.91-13.67Q335.91-15.48 335.55-17.07 335.18-18.65 334.45-19.92 333.71-21.19 332.69-22.02 331.66-22.85 330.39-23.1L330.39-23.1ZM316.77-13.77L316.77-13.77Q316.77-16.6 317.6-19.04 318.43-21.48 319.97-23.32 321.51-25.15 323.66-26.27 325.8-27.39 328.39-27.64L328.39-27.64 328.39-23.1Q325.95-22.56 324.49-20.02 323.02-17.48 323.02-13.92L323.02-13.92Q323.02-12.11 323.39-10.5 323.75-8.89 324.44-7.62 325.12-6.35 326.12-5.52 327.12-4.69 328.39-4.49L328.39-4.49 328.39 0.2Q325.71 0 323.56-1.15 321.41-2.29 319.9-4.15 318.38-6.01 317.58-8.5 316.77-10.99 316.77-13.77ZM349.78-27.54L355.05-27.54 355.68-24.76 355.68 0 349.78 0 349.78-27.54ZM370.28-24.51L370.28-24.51Q371.11-23.68 371.58-22.58 372.04-21.48 372.26-20.29 372.48-19.09 372.53-17.87 372.58-16.65 372.58-15.48L372.58-15.48 372.58-0.98 372.58 0 366.62 0 366.62-14.99Q366.62-16.65 366.48-18.16 366.33-19.68 365.79-20.85 365.26-22.02 364.33-22.68 363.4-23.34 361.74-23.34L361.74-23.34Q361.06-23.34 359.91-23.12 358.76-22.9 357.69-22.41L357.69-22.41 357.69-26.17Q359.01-26.86 360.54-27.34 362.08-27.83 363.55-27.83L363.55-27.83Q365.74-27.83 367.26-26.93 368.77-26.03 370.28-24.51Z" fill="black"></path></g></svg></g></svg></g></svg></g></svg></g><g transform="matrix(1,0,0,1,148.56408471194723,0)"><svg viewBox="0 0 98.39183057610552 98.39183057610552" height="98.39183057610552" width="98.39183057610552"><g><svg></svg></g><g id="SvgjsG2403"><svg viewBox="0 0 98.39183057610552 98.39183057610552" height="98.39183057610552" width="98.39183057610552"><g><path d="M0 49.196c0-27.17 22.026-49.196 49.196-49.196 27.17 0 49.196 22.026 49.196 49.196 0 27.17-22.026 49.196-49.196 49.196-27.17 0-49.196-22.026-49.196-49.196zM49.196 94.748c25.158 0 45.552-20.394 45.552-45.552 0-25.158-20.394-45.552-45.552-45.552-25.158 0-45.552 20.394-45.552 45.552 0 25.158 20.394 45.552 45.552 45.552z" fill="black" stroke="transparent"></path></g><g transform="matrix(1,0,0,1,20.72632965917556,37.91997699924146)"><svg viewBox="0 0 56.9391712577544 22.55187657762259" height="22.55187657762259" width="56.9391712577544"><g><svg xmlns="http://www.w3.org/2000/svg" xmlns:xlink="http://www.w3.org/1999/xlink" version="1.1" x="0" y="0" viewBox="0.52 29.195999999999998 94.95300070888244 37.60799999999999" enable-background="new 0 0 96 96" xml:space="preserve" height="22.55187657762259" width="56.9391712577544" class="icon-cg-0" data-fill-palette-color="accent" id="SvgjsSvg2402"><path d="M68.729 31.448c-0.908 0-1.756 0.072-2.557 0.216-0.951 0.168-1.648 1-1.648 1.964v13.568h-4v-12c0-1.104-0.899-2-2-2-1.104 0-2 0.896-2 2v12h-4v-16c0-1.104-0.899-2-2-2-1.104 0-2 0.896-2 2v16h-4v-16c0-1.104-0.896-2-2-2s-2 0.896-2 2v16h-4v-12c0-1.104-0.896-2-2-2s-2 0.896-2 2v12h-4v-8c0-1.104-0.896-2-2-2s-2 0.896-2 2v8h-4v-4c0-1.104-0.896-2-2-2s-2 0.896-2 2v3.568L3.72 37.204c-0.616-0.456-1.424-0.524-2.096-0.184-0.676 0.336-1.104 1.032-1.104 1.784v20.78c0 0.752 0.428 1.448 1.104 1.788 0.284 0.144 0.588 0.212 0.896 0.212 0.42 0 0.844-0.136 1.196-0.4L16.52 51.62v3.571c0 1.101 0.896 2 2 2s2-0.899 2-2v-4h4v8c0 1.101 0.896 2 2 2s2-0.899 2-2v-8h4v12c0 1.101 0.896 2 2 2s2-0.899 2-2v-12h4v12c0 1.101 0.896 2 2 2s2-0.899 2-2v-12h4v12c0 1.101 0.896 2 2 2 1.101 0 2-0.899 2-2v-12h4v8c0 1.101 0.896 2 2 2 1.101 0 2-0.899 2-2v-8h4v13.564c0 1.053 0.813 1.92 1.869 1.996 0.531 0.036 1.075 0.053 1.623 0.053 11.992 0 27.461-8.541 27.461-17.609C95.477 40.22 78.552 31.448 68.729 31.448z" fill="black"></path></svg></g></svg></g></svg></g></svg></g><g></g></svg></g><defs><mask></mask></defs></svg><rect width="395.52" height="157.88120438970364" fill="black" stroke="none" visibility="hidden"></rect></g></mask></svg><rect width="395.52" height="157.88120438970364" fill="black" stroke="none" visibility="hidden"></rect></g></mask></svg><rect width="395.52" height="157.88120438970364" fill="black" stroke="none" visibility="hidden"></rect></g></mask><linearGradient x1="0" x2="1" y1="0.5" y2="0.5" id="a6e64dcc-e2dd-48ce-af4e-937bc4a59cb9"><stop stop-color="#f00b51" offset="0"></stop><stop stop-color="#730062" offset="1"></stop></linearGradient><rect width="395.52" height="157.88120438970364" fill="#000000" mask="url(#944a3428-cd9a-4414-99f9-45b1e6f8e8f5)" data-fill-palette-color="accent"></rect></svg><rect width="395.52" height="157.88120438970364" fill="none" stroke="none" visibility="hidden"></rect></g></svg></g></svg>